<svg xmlns="http://www.w3.org/2000/svg" version="1.1" xmlns:xlink="http://www.w3.org/1999/xlink" xmlns:svgjs="http://svgjs.dev/svgjs" viewBox="0 0 9.532863241687862 3.7027939718194536"><g transform="matrix(1,0,0,1,0.4839793660620355,0.5456771057574186)"><g><path d=" M 1.6748553466796885 1.0725 C 1.6748553466796885 1.3065 1.8803553466796885 1.419 2.1188553466796884 1.419 C 2.4728553466796885 1.419 2.6843553466796886 1.269 2.6843553466796886 1.1219999999999999 C 2.6843553466796886 1.1039999999999999 2.6813553466796884 1.0965 2.6783553466796883 1.0785 L 2.7338553466796887 1.0785 C 2.7773553466796885 1.0785 2.808855346679689 1.047 2.808855346679689 1.014 C 2.808855346679689 0.9824999999999999 2.7908553466796886 0.9554999999999999 2.7488553466796883 0.9554999999999999 C 2.6873553466796887 0.9554999999999999 2.5793553466796886 0.9315 2.3723553466796887 0.8504999999999999 L 2.3438553466796885 0.975 C 2.4878553466796887 1.0154999999999998 2.5718553466796887 1.0485 2.5718553466796887 1.101 C 2.5718553466796887 1.209 2.3828553466796887 1.2974999999999999 2.151855346679689 1.2974999999999999 C 1.9598553466796886 1.2974999999999999 1.7978553466796885 1.2285 1.7978553466796885 1.062 C 1.7978553466796885 1.002 1.8143553466796885 0.9329999999999999 1.8458553466796885 0.849 L 1.7378553466796887 0.8069999999999999 C 1.6943553466796886 0.9135 1.6748553466796885 1.0005 1.6748553466796885 1.0725 M 2.2268553466796885 1.7025000000000001 C 2.2673553466796887 1.7025000000000001 2.3003553466796887 1.6695 2.3003553466796887 1.629 C 2.3003553466796887 1.5884999999999998 2.2673553466796887 1.5539999999999998 2.2268553466796885 1.5539999999999998 C 2.1848553466796887 1.5539999999999998 2.151855346679689 1.5884999999999998 2.151855346679689 1.629 C 2.151855346679689 1.6695 2.1848553466796887 1.7025000000000001 2.2268553466796885 1.7025000000000001 M 2.0213553466796887 1.7025000000000001 C 2.0618553466796885 1.7025000000000001 2.0948553466796884 1.6695 2.0948553466796884 1.629 C 2.0948553466796884 1.5884999999999998 2.0618553466796885 1.5539999999999998 2.0213553466796887 1.5539999999999998 C 1.9793553466796885 1.5539999999999998 1.9463553466796886 1.5884999999999998 1.9463553466796886 1.629 C 1.9463553466796886 1.6695 1.9793553466796885 1.7025000000000001 2.0213553466796887 1.7025000000000001 M 3.0833897705078135 0.16499999999999992 C 3.1238897705078132 0.16499999999999992 3.156889770507813 0.1319999999999999 3.156889770507813 0.09149999999999991 C 3.156889770507813 0.050999999999999934 3.1238897705078132 0.01649999999999996 3.0833897705078135 0.01649999999999996 C 3.0413897705078132 0.01649999999999996 3.0083897705078133 0.050999999999999934 3.0083897705078133 0.09149999999999991 C 3.0083897705078133 0.1319999999999999 3.0413897705078132 0.16499999999999992 3.0833897705078135 0.16499999999999992 M 2.7488897705078132 1.0785 C 2.921389770507813 1.0785 3.0938897705078134 1.068 3.1868897705078134 1.014 C 3.305389770507813 0.9435 3.351889770507813 0.8384999999999999 3.351889770507813 0.6884999999999999 C 3.351889770507813 0.49949999999999994 3.272389770507813 0.3194999999999999 3.1118897705078132 0.3194999999999999 C 2.958889770507813 0.3194999999999999 2.8598897705078135 0.49349999999999994 2.8598897705078135 0.6465 C 2.8598897705078135 0.7575 2.945389770507813 0.837 3.098389770507813 0.837 C 3.1388897705078134 0.837 3.180889770507813 0.8324999999999999 3.216889770507813 0.8205 C 3.1973897705078134 0.8775 3.1598897705078133 0.9089999999999999 3.095389770507813 0.9315 C 3.024889770507813 0.9554999999999999 2.862889770507813 0.9554999999999999 2.7638897705078134 0.9554999999999999 M 2.978389770507813 0.6164999999999999 C 2.978389770507813 0.5355 3.029389770507813 0.4424999999999999 3.0998897705078132 0.4424999999999999 C 3.1838897705078133 0.4424999999999999 3.234889770507813 0.5549999999999999 3.234889770507813 0.6795 C 3.234889770507813 0.6869999999999999 3.234889770507813 0.6944999999999999 3.234889770507813 0.7004999999999999 C 3.1973897705078134 0.7124999999999999 3.1523897705078134 0.7184999999999999 3.1118897705078132 0.7184999999999999 C 3.014389770507813 0.7184999999999999 2.978389770507813 0.6795 2.978389770507813 0.6164999999999999 M 3.395378051757813 1.419 C 3.5453780517578135 1.3815 3.783878051757813 1.2375 3.8258780517578135 1.0125 C 3.8573780517578133 1.0514999999999999 3.9068780517578134 1.0785 3.9833780517578132 1.0785 C 4.026878051757813 1.0785 4.058378051757813 1.047 4.058378051757813 1.014 C 4.058378051757813 0.9824999999999999 4.040378051757814 0.9554999999999999 3.9983780517578134 0.9554999999999999 C 3.9203780517578135 0.9554999999999999 3.8783780517578132 0.9315 3.8513780517578136 0.8444999999999999 C 3.8288780517578136 0.7709999999999999 3.7898780517578134 0.6689999999999999 3.7343780517578136 0.5624999999999999 L 3.6248780517578134 0.6179999999999999 C 3.677378051757813 0.708 3.7283780517578133 0.813 3.7283780517578133 0.9105 C 3.7283780517578133 1.0485 3.642878051757813 1.2075 3.3518780517578133 1.305 M 3.9983721923828135 1.0785 C 4.337372192382814 1.0785 4.482872192382813 0.951 4.634372192382814 0.879 C 4.676372192382813 1.05 4.793372192382813 1.0785 4.953872192382813 1.0785 C 4.997372192382813 1.0785 5.0288721923828135 1.047 5.0288721923828135 1.014 C 5.0288721923828135 0.9824999999999999 5.010872192382814 0.9554999999999999 4.968872192382814 0.9554999999999999 C 4.830872192382813 0.9554999999999999 4.769372192382813 0.9344999999999999 4.731872192382814 0.8444999999999999 C 4.760372192382814 0.8384999999999999 4.788872192382813 0.834 4.821872192382814 0.834 L 4.811372192382813 0.726 L 4.779872192382814 0.726 C 4.623872192382813 0.726 4.509872192382813 0.5429999999999999 4.247372192382813 0.5429999999999999 C 4.196372192382814 0.5429999999999999 4.142372192382814 0.5519999999999999 4.088372192382813 0.5684999999999999 L 4.112372192382813 0.6824999999999999 C 4.166372192382814 0.6704999999999999 4.197872192382814 0.6659999999999999 4.247372192382813 0.6659999999999999 C 4.382372192382814 0.6659999999999999 4.499372192382814 0.711 4.577372192382813 0.78 C 4.416872192382813 0.891 4.218872192382814 0.9554999999999999 4.011872192382813 0.9554999999999999 M 4.968908081054688 1.0785 C 5.238908081054689 1.0785 5.276408081054688 0.963 5.267408081054688 0.75 L 5.237408081054689 0 L 5.115908081054688 0 L 5.144408081054689 0.7635 C 5.150408081054688 0.9149999999999999 5.151908081054688 0.9554999999999999 4.982408081054688 0.9554999999999999 M 5.511922729492188 1.071 L 5.633422729492188 1.071 L 5.603422729492188 0 L 5.4819227294921875 0" fill="#404040" fill-rule="nonzero"></path></g><g><path d=" M 0.195625 2.6731374999999993 C 0.343125 2.6731374999999993 0.385625 2.591262499999999 0.39687500000000003 2.5143874999999993 C 0.40875 2.524387499999999 0.42562500000000003 2.531262499999999 0.45 2.531262499999999 C 0.489375 2.531262499999999 0.5125 2.520012499999999 0.530625 2.4937624999999994 C 0.5425 2.5193874999999992 0.5675 2.531262499999999 0.613125 2.531262499999999 C 0.676875 2.531262499999999 0.724375 2.5012624999999993 0.724375 2.4162624999999993 C 0.724375 2.3787624999999992 0.7075 2.316887499999999 0.691875 2.276262499999999 L 0.64125 2.2950124999999995 C 0.659375 2.3425124999999993 0.676875 2.395012499999999 0.676875 2.426262499999999 C 0.676875 2.4768874999999992 0.651875 2.480012499999999 0.61375 2.480012499999999 C 0.564375 2.480012499999999 0.556875 2.4650124999999994 0.556875 2.4468874999999994 C 0.556875 2.4256374999999992 0.564375 2.3831374999999992 0.568125 2.3606374999999993 L 0.520625 2.3518874999999992 C 0.505625 2.4743874999999993 0.48562500000000003 2.480012499999999 0.453125 2.480012499999999 C 0.42125 2.480012499999999 0.401875 2.4737624999999994 0.388125 2.428137499999999 C 0.384375 2.415012499999999 0.380625 2.3981374999999994 0.3675 2.3506374999999995 L 0.316875 2.3643874999999994 C 0.33125 2.4137624999999994 0.345625 2.4568874999999992 0.345625 2.5118874999999994 C 0.345625 2.5650124999999995 0.31125 2.6218874999999993 0.1975 2.6218874999999993 C 0.12687500000000002 2.6218874999999993 0.07 2.588762499999999 0.07 2.524387499999999 C 0.07 2.499387499999999 0.076875 2.470637499999999 0.09 2.4356374999999995 L 0.045 2.4181374999999994 C 0.026875 2.4625124999999994 0.01875 2.4987624999999993 0.01875 2.528762499999999 C 0.01875 2.620012499999999 0.10125 2.6731374999999993 0.195625 2.6731374999999993 M 0.943740234375 2.531262499999999 C 0.961865234375 2.531262499999999 0.974990234375 2.5181374999999995 0.974990234375 2.504387499999999 C 0.974990234375 2.491262499999999 0.967490234375 2.480012499999999 0.949990234375 2.480012499999999 C 0.8781152343749999 2.480012499999999 0.8731152343749999 2.4650124999999994 0.870615234375 2.403762499999999 L 0.858115234375 2.0818874999999992 L 0.806865234375 2.0818874999999992 L 0.819365234375 2.423762499999999 C 0.8218652343749999 2.4987624999999993 0.843115234375 2.531262499999999 0.943740234375 2.531262499999999 M 1.0474999999999999 2.2868874999999993 C 1.064375 2.2868874999999993 1.078125 2.2731374999999994 1.078125 2.256262499999999 C 1.078125 2.2393874999999994 1.064375 2.225012499999999 1.0474999999999999 2.225012499999999 C 1.03 2.225012499999999 1.0162499999999999 2.2393874999999994 1.0162499999999999 2.256262499999999 C 1.0162499999999999 2.2731374999999994 1.03 2.2868874999999993 1.0474999999999999 2.2868874999999993 M 0.95 2.531262499999999 C 1.005 2.531262499999999 1.034375 2.5237624999999992 1.0587499999999999 2.488762499999999 C 1.070625 2.5168874999999993 1.09875 2.531262499999999 1.164375 2.531262499999999 C 1.1824999999999999 2.531262499999999 1.195625 2.5181374999999995 1.195625 2.504387499999999 C 1.195625 2.491262499999999 1.1881249999999999 2.480012499999999 1.170625 2.480012499999999 C 1.0925 2.480012499999999 1.083125 2.4612624999999992 1.083125 2.4362624999999993 C 1.083125 2.4162624999999993 1.09125 2.3831374999999992 1.09625 2.3606374999999993 L 1.0474999999999999 2.3512624999999994 C 1.0262499999999999 2.461887499999999 1.026875 2.480012499999999 0.9562499999999999 2.480012499999999 M 1.170635986328125 2.531262499999999 C 1.283135986328125 2.531262499999999 1.298760986328125 2.4831374999999993 1.295010986328125 2.3943874999999992 L 1.282510986328125 2.0818874999999992 L 1.231885986328125 2.0818874999999992 L 1.243760986328125 2.4000124999999994 C 1.246260986328125 2.4631374999999993 1.246885986328125 2.480012499999999 1.176260986328125 2.480012499999999 M 1.3968920898437502 2.5281374999999993 L 1.4475170898437502 2.5281374999999993 L 1.4350170898437502 2.0818874999999992 L 1.38439208984375 2.0818874999999992 M 1.973595886230469 2.2775124999999994 C 1.990470886230469 2.2775124999999994 2.0042208862304687 2.2637624999999995 2.0042208862304687 2.2468874999999993 C 2.0042208862304687 2.230012499999999 1.990470886230469 2.2156374999999993 1.973595886230469 2.2156374999999993 C 1.956095886230469 2.2156374999999993 1.942345886230469 2.230012499999999 1.942345886230469 2.2468874999999993 C 1.942345886230469 2.2637624999999995 1.956095886230469 2.2775124999999994 1.973595886230469 2.2775124999999994 M 1.887970886230469 2.2775124999999994 C 1.904845886230469 2.2775124999999994 1.9185958862304688 2.2637624999999995 1.9185958862304688 2.2468874999999993 C 1.9185958862304688 2.230012499999999 1.904845886230469 2.2156374999999993 1.887970886230469 2.2156374999999993 C 1.8704708862304689 2.2156374999999993 1.856720886230469 2.230012499999999 1.856720886230469 2.2468874999999993 C 1.856720886230469 2.2637624999999995 1.8704708862304689 2.2775124999999994 1.887970886230469 2.2775124999999994 M 1.8685958862304688 2.5412624999999993 C 1.997345886230469 2.5412624999999993 2.112970886230469 2.515012499999999 2.181720886230469 2.461887499999999 C 2.1829708862304686 2.511262499999999 2.234845886230469 2.531262499999999 2.3079708862304686 2.531262499999999 C 2.326095886230469 2.531262499999999 2.3392208862304686 2.5181374999999995 2.3392208862304686 2.504387499999999 C 2.3392208862304686 2.491262499999999 2.331720886230469 2.480012499999999 2.3142208862304687 2.480012499999999 C 2.243595886230469 2.480012499999999 2.227345886230469 2.4612624999999992 2.227345886230469 2.4425124999999994 C 2.227345886230469 2.4337624999999994 2.2292208862304688 2.423762499999999 2.236720886230469 2.4043874999999995 L 2.197345886230469 2.381262499999999 C 2.1198458862304688 2.468762499999999 1.986095886230469 2.4900124999999993 1.884845886230469 2.4900124999999993 C 1.736095886230469 2.4900124999999993 1.694845886230469 2.4650124999999994 1.694845886230469 2.4000124999999994 C 1.694845886230469 2.3787624999999992 1.7029708862304689 2.3468874999999993 1.707970886230469 2.328137499999999 L 1.6610958862304688 2.3162624999999992 C 1.652345886230469 2.3475124999999992 1.643595886230469 2.383762499999999 1.643595886230469 2.4143874999999992 C 1.643595886230469 2.5056374999999993 1.7198458862304689 2.5412624999999993 1.8685958862304688 2.5412624999999993 M 2.3142318725585938 2.531262499999999 C 2.4267318725585936 2.531262499999999 2.4423568725585936 2.4831374999999993 2.438606872558594 2.3943874999999992 L 2.4261068725585937 2.0818874999999992 L 2.3754818725585936 2.0818874999999992 L 2.387356872558594 2.4000124999999994 C 2.389856872558594 2.4631374999999993 2.3904818725585937 2.480012499999999 2.319856872558594 2.480012499999999 M 2.664862976074219 2.531262499999999 C 2.682987976074219 2.531262499999999 2.696112976074219 2.5181374999999995 2.696112976074219 2.504387499999999 C 2.696112976074219 2.491262499999999 2.688612976074219 2.480012499999999 2.6711129760742187 2.480012499999999 C 2.599237976074219 2.480012499999999 2.594237976074219 2.4650124999999994 2.591737976074219 2.403762499999999 L 2.579237976074219 2.0818874999999992 L 2.5279879760742188 2.0818874999999992 L 2.540487976074219 2.423762499999999 C 2.542987976074219 2.4987624999999993 2.5642379760742187 2.531262499999999 2.664862976074219 2.531262499999999 M 2.854247741699219 2.1506374999999993 C 2.871122741699219 2.1506374999999993 2.884872741699219 2.1368874999999994 2.884872741699219 2.120012499999999 C 2.884872741699219 2.1031374999999994 2.871122741699219 2.088762499999999 2.854247741699219 2.088762499999999 C 2.836747741699219 2.088762499999999 2.822997741699219 2.1031374999999994 2.822997741699219 2.120012499999999 C 2.822997741699219 2.1368874999999994 2.836747741699219 2.1506374999999993 2.854247741699219 2.1506374999999993 M 2.768622741699219 2.1506374999999993 C 2.785497741699219 2.1506374999999993 2.7992477416992188 2.1368874999999994 2.7992477416992188 2.120012499999999 C 2.7992477416992188 2.1031374999999994 2.785497741699219 2.088762499999999 2.768622741699219 2.088762499999999 C 2.751122741699219 2.088762499999999 2.737372741699219 2.1031374999999994 2.737372741699219 2.120012499999999 C 2.737372741699219 2.1368874999999994 2.751122741699219 2.1506374999999993 2.768622741699219 2.1506374999999993 M 2.671122741699219 2.531262499999999 C 2.742997741699219 2.531262499999999 2.8148727416992188 2.526887499999999 2.853622741699219 2.504387499999999 C 2.902997741699219 2.475012499999999 2.922372741699219 2.4312624999999994 2.922372741699219 2.3687624999999994 C 2.922372741699219 2.290012499999999 2.889247741699219 2.2150124999999994 2.822372741699219 2.2150124999999994 C 2.758622741699219 2.2150124999999994 2.717372741699219 2.287512499999999 2.717372741699219 2.3512624999999994 C 2.717372741699219 2.3975124999999995 2.752997741699219 2.430637499999999 2.816747741699219 2.430637499999999 C 2.833622741699219 2.430637499999999 2.851122741699219 2.428762499999999 2.8661227416992188 2.423762499999999 C 2.857997741699219 2.4475124999999993 2.842372741699219 2.4606374999999994 2.815497741699219 2.4700124999999993 C 2.786122741699219 2.480012499999999 2.718622741699219 2.480012499999999 2.677372741699219 2.480012499999999 M 2.766747741699219 2.338762499999999 C 2.766747741699219 2.3050124999999992 2.7879977416992188 2.2662624999999994 2.817372741699219 2.2662624999999994 C 2.852372741699219 2.2662624999999994 2.873622741699219 2.3131374999999994 2.873622741699219 2.3650124999999993 C 2.873622741699219 2.368137499999999 2.873622741699219 2.3712624999999994 2.873622741699219 2.3737624999999993 C 2.857997741699219 2.3787624999999992 2.839247741699219 2.381262499999999 2.822372741699219 2.381262499999999 C 2.781747741699219 2.381262499999999 2.766747741699219 2.3650124999999993 2.766747741699219 2.338762499999999 M 3.1386361694335942 2.531262499999999 C 3.156761169433594 2.531262499999999 3.1698861694335942 2.5181374999999995 3.1698861694335942 2.504387499999999 C 3.1698861694335942 2.491262499999999 3.162386169433594 2.480012499999999 3.144886169433594 2.480012499999999 C 3.073011169433594 2.480012499999999 3.068011169433594 2.4650124999999994 3.065511169433594 2.403762499999999 L 3.053011169433594 2.0818874999999992 L 3.001761169433594 2.0818874999999992 L 3.014261169433594 2.423762499999999 C 3.016761169433594 2.4987624999999993 3.038011169433594 2.531262499999999 3.1386361694335942 2.531262499999999 M 3.144895935058594 2.531262499999999 C 3.1798959350585942 2.531262499999999 3.204895935058594 2.5275124999999994 3.2311459350585943 2.4893874999999994 C 3.2867709350585943 2.524387499999999 3.3223959350585943 2.5281374999999993 3.346770935058594 2.5281374999999993 C 3.390520935058594 2.5281374999999993 3.435520935058594 2.5025124999999995 3.435520935058594 2.4268874999999994 C 3.435520935058594 2.370012499999999 3.391145935058594 2.3043874999999994 3.334895935058594 2.3043874999999994 C 3.299270935058594 2.3043874999999994 3.264270935058594 2.321262499999999 3.228020935058594 2.4006374999999993 C 3.201145935058594 2.460012499999999 3.185520935058594 2.480012499999999 3.151145935058594 2.480012499999999 M 3.261770935058594 2.4337624999999994 C 3.289895935058594 2.370012499999999 3.308645935058594 2.3556374999999994 3.331145935058594 2.3556374999999994 C 3.361145935058594 2.3556374999999994 3.390520935058594 2.3975124999999995 3.390520935058594 2.4337624999999994 C 3.390520935058594 2.459387499999999 3.376770935058594 2.4768874999999992 3.341145935058594 2.4768874999999992 C 3.321145935058594 2.4768874999999992 3.2911459350585943 2.470637499999999 3.254895935058594 2.4493874999999994 C 3.256770935058594 2.444387499999999 3.259270935058594 2.439387499999999 3.261770935058594 2.4337624999999994 M 3.6460049438476565 2.671887499999999 C 3.7835049438476567 2.656262499999999 3.8547549438476567 2.5881374999999993 3.8547549438476567 2.4712624999999995 C 3.8547549438476567 2.392512499999999 3.8216299438476566 2.3175124999999994 3.7547549438476566 2.3175124999999994 C 3.6910049438476564 2.3175124999999994 3.6497549438476566 2.390012499999999 3.6497549438476566 2.4537624999999994 C 3.6497549438476566 2.5075124999999994 3.6853799438476567 2.533137499999999 3.7491299438476564 2.533137499999999 C 3.7653799438476567 2.533137499999999 3.7822549438476565 2.531262499999999 3.7972549438476566 2.526887499999999 C 3.7747549438476566 2.5900124999999994 3.7141299438476567 2.6100124999999994 3.6347549438476565 2.620637499999999 M 3.6991299438476566 2.4412624999999992 C 3.6991299438476566 2.4075124999999993 3.720379943847657 2.3687624999999994 3.7497549438476567 2.3687624999999994 C 3.7847549438476564 2.3687624999999994 3.8060049438476566 2.4156374999999994 3.8060049438476566 2.4675124999999993 C 3.8060049438476566 2.470637499999999 3.8060049438476566 2.4737624999999994 3.8060049438476566 2.4762624999999994 C 3.7903799438476566 2.4812624999999993 3.771629943847657 2.483762499999999 3.7547549438476566 2.483762499999999 C 3.7141299438476567 2.483762499999999 3.6991299438476566 2.4675124999999993 3.6991299438476566 2.4412624999999992 M 4.222112121582032 2.133762499999999 C 4.238987121582031 2.133762499999999 4.252737121582031 2.120012499999999 4.252737121582031 2.1031374999999994 C 4.252737121582031 2.0862624999999992 4.238987121582031 2.0718874999999994 4.222112121582032 2.0718874999999994 C 4.204612121582032 2.0718874999999994 4.190862121582032 2.0862624999999992 4.190862121582032 2.1031374999999994 C 4.190862121582032 2.120012499999999 4.204612121582032 2.133762499999999 4.222112121582032 2.133762499999999 M 4.136487121582031 2.133762499999999 C 4.153362121582032 2.133762499999999 4.167112121582032 2.120012499999999 4.167112121582032 2.1031374999999994 C 4.167112121582032 2.0862624999999992 4.153362121582032 2.0718874999999994 4.136487121582031 2.0718874999999994 C 4.118987121582031 2.0718874999999994 4.105237121582031 2.0862624999999992 4.105237121582031 2.1031374999999994 C 4.105237121582031 2.120012499999999 4.118987121582031 2.133762499999999 4.136487121582031 2.133762499999999 M 4.329612121582032 2.531262499999999 C 4.347737121582032 2.531262499999999 4.360862121582032 2.5181374999999995 4.360862121582032 2.504387499999999 C 4.360862121582032 2.491262499999999 4.353362121582031 2.480012499999999 4.335862121582031 2.480012499999999 C 4.290862121582031 2.480012499999999 4.2652371215820315 2.470637499999999 4.262112121582032 2.4118874999999993 L 4.252112121582032 2.205637499999999 L 4.201487121582032 2.205637499999999 L 4.203362121582032 2.2531374999999993 C 4.115237121582032 2.267512499999999 4.044612121582031 2.3218874999999994 4.044612121582031 2.3887624999999995 C 4.044612121582031 2.4568874999999992 4.130237121582032 2.4881374999999992 4.218987121582032 2.4668874999999995 C 4.234612121582032 2.515637499999999 4.275237121582031 2.531262499999999 4.329612121582032 2.531262499999999 M 4.093987121582032 2.3806374999999993 C 4.093987121582032 2.350012499999999 4.133987121582032 2.3131374999999994 4.205862121582031 2.3050124999999992 L 4.2114871215820315 2.419387499999999 C 4.1646121215820315 2.428137499999999 4.093987121582032 2.4200124999999995 4.093987121582032 2.3806374999999993 M 4.33587646484375 2.531262499999999 C 4.37087646484375 2.531262499999999 4.39587646484375 2.5275124999999994 4.42212646484375 2.4893874999999994 C 4.47775146484375 2.524387499999999 4.51337646484375 2.5281374999999993 4.53775146484375 2.5281374999999993 C 4.58150146484375 2.5281374999999993 4.62650146484375 2.5025124999999995 4.62650146484375 2.4268874999999994 C 4.62650146484375 2.370012499999999 4.58212646484375 2.3043874999999994 4.52587646484375 2.3043874999999994 C 4.49025146484375 2.3043874999999994 4.45525146484375 2.321262499999999 4.41900146484375 2.4006374999999993 C 4.39212646484375 2.460012499999999 4.37650146484375 2.480012499999999 4.34212646484375 2.480012499999999 M 4.45275146484375 2.4337624999999994 C 4.48087646484375 2.370012499999999 4.49962646484375 2.3556374999999994 4.52212646484375 2.3556374999999994 C 4.55212646484375 2.3556374999999994 4.58150146484375 2.3975124999999995 4.58150146484375 2.4337624999999994 C 4.58150146484375 2.459387499999999 4.56775146484375 2.4768874999999992 4.53212646484375 2.4768874999999992 C 4.51212646484375 2.4768874999999992 4.48212646484375 2.470637499999999 4.44587646484375 2.4493874999999994 C 4.44775146484375 2.444387499999999 4.45025146484375 2.439387499999999 4.45275146484375 2.4337624999999994 M 4.8046417236328125 2.480012499999999 C 4.7646417236328125 2.480012499999999 4.734016723632812 2.468137499999999 4.717141723632812 2.4568874999999992 L 4.692141723632812 2.500012499999999 C 4.7177667236328125 2.520012499999999 4.759016723632812 2.5318874999999994 4.8046417236328125 2.5318874999999994 C 4.869016723632813 2.5318874999999994 4.903391723632812 2.5118874999999994 4.919641723632812 2.484387499999999 C 4.937766723632812 2.5187624999999993 4.970891723632812 2.531262499999999 5.002766723632812 2.531262499999999 C 5.020891723632812 2.531262499999999 5.034016723632812 2.5181374999999995 5.034016723632812 2.504387499999999 C 5.034016723632812 2.491262499999999 5.025891723632812 2.480012499999999 5.008391723632812 2.480012499999999 C 4.988391723632812 2.480012499999999 4.9608917236328125 2.475012499999999 4.944016723632812 2.419387499999999 C 4.929016723632812 2.370012499999999 4.899016723632812 2.3093874999999993 4.850891723632812 2.2350124999999994 L 4.807766723632812 2.263137499999999 C 4.852141723632812 2.3293874999999993 4.8896417236328125 2.3943874999999992 4.8896417236328125 2.4268874999999994 C 4.8896417236328125 2.460012499999999 4.866516723632812 2.480012499999999 4.8046417236328125 2.480012499999999 M 5.107130737304686 2.2437624999999994 C 5.124005737304687 2.2437624999999994 5.137755737304687 2.230012499999999 5.137755737304687 2.2131374999999993 C 5.137755737304687 2.196262499999999 5.124005737304687 2.1818874999999993 5.107130737304686 2.1818874999999993 C 5.089630737304687 2.1818874999999993 5.075880737304686 2.196262499999999 5.075880737304686 2.2131374999999993 C 5.075880737304686 2.230012499999999 5.089630737304687 2.2437624999999994 5.107130737304686 2.2437624999999994 M 5.009005737304687 2.531262499999999 C 5.150255737304687 2.531262499999999 5.210880737304687 2.4781374999999994 5.2740057373046865 2.448137499999999 C 5.2915057373046865 2.5193874999999992 5.340255737304687 2.531262499999999 5.407130737304687 2.531262499999999 C 5.425255737304687 2.531262499999999 5.438380737304687 2.5181374999999995 5.438380737304687 2.504387499999999 C 5.438380737304687 2.491262499999999 5.430880737304687 2.480012499999999 5.413380737304687 2.480012499999999 C 5.355880737304687 2.480012499999999 5.330255737304687 2.4712624999999995 5.314630737304687 2.4337624999999994 C 5.326505737304687 2.4312624999999994 5.3383807373046865 2.4293874999999994 5.3521307373046865 2.4293874999999994 L 5.347755737304687 2.3843874999999994 L 5.334630737304686 2.3843874999999994 C 5.269630737304687 2.3843874999999994 5.222130737304687 2.308137499999999 5.112755737304687 2.308137499999999 C 5.091505737304686 2.308137499999999 5.069005737304686 2.311887499999999 5.046505737304686 2.318762499999999 L 5.056505737304687 2.3662624999999995 C 5.079005737304687 2.361262499999999 5.092130737304687 2.359387499999999 5.112755737304687 2.359387499999999 C 5.169005737304687 2.359387499999999 5.217755737304687 2.3781374999999993 5.250255737304687 2.4068874999999994 C 5.183380737304687 2.453137499999999 5.100880737304687 2.480012499999999 5.014630737304687 2.480012499999999 M 5.413395690917968 2.531262499999999 C 5.5258956909179675 2.531262499999999 5.5415206909179675 2.4831374999999993 5.537770690917967 2.3943874999999992 L 5.525270690917968 2.0818874999999992 L 5.474645690917968 2.0818874999999992 L 5.486520690917968 2.4000124999999994 C 5.489020690917967 2.4631374999999993 5.489645690917968 2.480012499999999 5.419020690917968 2.480012499999999 M 5.639651794433592 2.5281374999999993 L 5.690276794433593 2.5281374999999993 L 5.677776794433592 2.0818874999999992 L 5.627151794433592 2.0818874999999992" fill="#4e888f" fill-rule="nonzero"></path></g><g clip-path="url(&quot;#SvgjsClipPath1001&quot;)"><g clip-path="url(&quot;#SvgjsClipPath1000da14584e-7d62-46d3-9df7-6a094f4ca30b&quot;)"><path d=" M 6.130886840820313 -0.06169773969538328 L 6.130886840820313 2.0788591745702076 L 7.347895675192052 2.589835239695383 L 8.564904509563792 2.0788591745702076 L 8.564904509563792 -0.06169773969538328 Z" fill="#404040" transform="matrix(1,0,0,1,0,0)" fill-rule="nonzero"></path></g><g clip-path="url(&quot;#SvgjsClipPath1000da14584e-7d62-46d3-9df7-6a094f4ca30b&quot;)"><path d=" M 6.203058816378231 2.041920148070282 L 6.203058816378231 0.007066127631341068 L 8.49272882185042 0.007066127631341068 L 8.49272882185042 2.041920148070282 L 7.347893819114326 2.5226011251759353 Z" fill="#bab9b4" transform="matrix(1,0,0,1,0,0)" fill-rule="nonzero"></path></g><g clip-path="url(&quot;#SvgjsClipPath1000da14584e-7d62-46d3-9df7-6a094f4ca30b&quot;)"><path d=" M 7.3478946446962325 2.4558474752542767 L 8.431178239775564 2.001013853428521 L 8.431178239775564 0.06862060661408775 L 6.264611049616901 0.06862060661408775 L 6.264611049616901 2.001013853428521 Z" fill="#4e888f" transform="matrix(1,0,0,1,0,0)" fill-rule="nonzero"></path></g><g clip-path="url(&quot;#a376d3e49-d35c-4835-a99d-14d853400b6eda14584e-7d62-46d3-9df7-6a094f4ca30b&quot;)"><path d=" M 7.996107918823514 0.7665484103412773 L 7.847524319609727 1.095908721931838 C 7.949333410781542 1.0817183365244687 8.092630236097865 1.0676745796689548 8.281756629899755 1.0610111265901787 C 8.197567403042601 0.968960980147427 8.101761936466211 0.870068167951409 7.996107918823514 0.7665484103412773 M 7.734946175907176 1.037876399519611 L 7.898355550919707 0.6721440610381757 C 7.7024027834258675 0.4855429367404668 7.477653797553697 0.28671462042412327 7.23369647138843 0.08769894540263079 L 7.210309217367444 0.0686209416000711 L 8.431179270271382 0.0686209416000711 L 8.431179270271382 2.0010141884145045 L 7.347895675192052 2.4558559562709186 L 6.264612080112721 2.001014188414504 L 6.264612080112721 0.927179988899208 C 6.404870435993367 0.5191208751154242 6.755459303480371 0.33109419545245133 6.985454333096712 0.36993446963289733 C 6.996231531658106 0.3497241675687852 7.011505339143076 0.3257259612484006 7.037263088085729 0.3010353423220307 C 7.123708765435329 0.17904853320873823 7.2920953651802956 0.1848810911603319 7.408608041690975 0.25154820607072836 C 7.5231901089355535 0.3171074608115483 7.601807450822191 0.4492279320642022 7.5209255124124486 0.5990741660300797 C 7.602793120531888 0.6623199480638429 7.6581453988574175 0.8030100435693971 7.70093649790731 0.982035359354561 C 7.708707811155662 0.9873384253133426 7.714344864371449 0.9945802465688829 7.7181001845050865 1.0003476362752075 C 7.72508133277955 1.0110352284993573 7.730645071719408 1.0243458425955922 7.734946175907176 1.0378763995196107" fill="#bab9b4" transform="matrix(1,0,0,1,0,0)" fill-rule="nonzero"></path></g><g clip-path="url(&quot;#a376d3e49-d35c-4835-a99d-14d853400b6eda14584e-7d62-46d3-9df7-6a094f4ca30b&quot;)"><path d=" M 8.335781105227927 1.0839747870169147 C 8.07629744462727 0.7948151367267948 7.694729222545418 0.43203166134379095 7.249255389946452 0.06861279556941227 L 8.431179270271382 0.06861279556941227 L 8.431179270271382 2.0010141884145045 L 7.347887529161393 2.45584781024026 L 6.264612080112721 2.001014188414504 L 6.264612080112721 1.0090475970186468 C 6.391046621965637 0.550018769403686 6.772932539243176 0.34522755864521043 6.998976743990071 0.3977287262402133 C 7.009957593317933 0.3751968054383858 7.024538988196917 0.34678345050101256 7.055998958600625 0.31718077508747633 C 7.207107827318595 0.09894861374222713 7.668539733977856 0.3209035110984796 7.488048132674136 0.6064870539294519 C 7.572726121370808 0.6559823362114129 7.632754221294404 0.7984238283085769 7.679764964225477 0.9995004490867081 C 7.708512306419855 1.002693693104899 7.730881306608509 1.1017168417914558 7.72055213973334 1.1425121633299777 C 7.814247784369139 1.122668432645505 8.012945764194944 1.0925281192084977 8.335781105227927 1.0839747870169147" fill="#404040" transform="matrix(1,0,0,1,0,0)" fill-rule="nonzero"></path></g><g clip-path="url(&quot;#SvgjsClipPath1000da14584e-7d62-46d3-9df7-6a094f4ca30b&quot;)"><path d=" M 7.93860757119826 0.6424265456724403 L 7.712131626826457 1.1492970113456558 L 7.794805691981102 1.1528894108661205 L 8.01050443779151 0.6747744334179417 Z" fill="#404040" transform="matrix(1,0,0,1,0,0)" fill-rule="nonzero"></path></g><g clip-path="url(&quot;#b376d3e49-d35c-4835-a99d-14d853400b6eda14584e-7d62-46d3-9df7-6a094f4ca30b&quot;)"><path d=" M 7.464082510476386 0.5808677875079958 C 7.585189548278544 0.29388312740373573 7.200696901190236 0.1713423882056549 7.0838013612386 0.33647057568716093 C 7.210830563329598 0.4757514078887687 7.337590946408859 0.5572198605059332 7.464082510476386 0.5808677875079958" fill="#bab9b4" transform="matrix(1,0,0,1,0,0)" fill-rule="nonzero"></path></g><g clip-path="url(&quot;#b376d3e49-d35c-4835-a99d-14d853400b6eda14584e-7d62-46d3-9df7-6a094f4ca30b&quot;)"><path d=" M 7.457182822508508 0.6090204694642923 C 7.387175835028065 0.5990334358767868 7.308591077264063 0.5633538215918972 7.194359289337806 0.48916792038356627 C 7.195589339967262 0.581193628734342 7.230332160726407 0.7327586751691948 7.343733053525481 0.7364732651495395 C 7.453606715049361 0.740073810700663 7.438650602760078 0.757978786088377 7.473491175887126 0.783785411214982 C 7.476228242188434 0.7607402904816596 7.473222356875391 0.6585157517462533 7.457182822508508 0.6090204694642923" fill="#bab9b4" transform="matrix(1,0,0,1,0,0)" fill-rule="nonzero"></path></g><g clip-path="url(&quot;#b376d3e49-d35c-4835-a99d-14d853400b6eda14584e-7d62-46d3-9df7-6a094f4ca30b&quot;)"><path d=" M 7.345077148584159 0.7549647547446763 L 7.34011621591304 0.8293705987807908 C 7.336963702048143 0.845149460166597 7.308713267723943 0.8378669087577633 7.296828208992972 0.8235054567065623 L 7.263983413377292 0.8558126142987705 C 7.263983413377292 0.8558126142987705 7.212638982135818 0.8386163435783591 7.204517389569143 0.8337857473977793 C 7.213087013822044 0.8513648815591472 7.230462497216945 0.8611564104108453 7.256660131815165 0.863144041891556 C 7.259209839411323 0.8858551753678738 7.239814140413076 0.900469154369493 7.194253390939243 0.8699133933688947 C 7.197666577785218 0.8795420016074197 7.2072707479317675 0.893357669604491 7.223839774291463 0.900469154369493 C 7.211188988678578 0.9677798057019229 7.142664578778009 0.9577357498998067 7.0671427285416595 0.8253383136047587 C 7.041116160587271 0.7746700029079521 7.03103952066252 0.706153739038042 7.036912808767408 0.6198058140563457 C 6.9559901402043725 0.5911480781992129 7.110251522787238 0.3317132937825091 7.1003703875982955 0.5338570445769234 L 7.124564098654488 0.4916117295811614 C 7.133834281544032 0.4765660109546338 7.163119261761881 0.46050203849577476 7.17042625126269 0.5430620592211985 C 7.209119896891281 0.6755979780374436 7.247235174343107 0.71316747143514 7.263535381691066 0.7262907268262262 L 7.3112548292894415 0.7472993398948861 L 7.312607070378777 0.7811216591896034 L 7.322080904034788 0.7500038220735581 Z" fill="#bab9b4" transform="matrix(1,0,0,1,0,0)" fill-rule="nonzero"></path></g><g clip-path="url(&quot;#b376d3e49-d35c-4835-a99d-14d853400b6eda14584e-7d62-46d3-9df7-6a094f4ca30b&quot;)"><path d=" M 6.990643354626272 0.5037900454158439 L 6.948341017415899 0.5748315787899357 C 6.91211561907688 0.6760867398769626 6.919471484761642 0.7591762525951985 6.970400468439525 0.8240838248833263 L 7.036635843725013 0.7905873468149552 C 7.023113432831654 0.7283598186135233 7.01769632244365 0.7026590918854807 7.021215407688188 0.6429161030349373 C 6.983882149179592 0.602544375090665 6.98195968594415 0.56556954193105 6.990643354626272 0.5037900454158439" fill="#bab9b4" transform="matrix(1,0,0,1,0,0)" fill-rule="nonzero"></path></g><g clip-path="url(&quot;#b376d3e49-d35c-4835-a99d-14d853400b6eda14584e-7d62-46d3-9df7-6a094f4ca30b&quot;)"><path d=" M 6.964584202549249 0.43014178223098404 C 6.677933529701993 0.4284474078539848 6.377605671378864 0.6081488441838167 6.441478697773342 1.0010726330038278 C 6.434122832088581 1.191559413925713 6.443466329254053 1.314841441913731 6.469525481331076 1.3709187169678816 C 6.450194950578099 1.4853541556606054 6.46624263097564 1.5578945586758886 6.545918956847902 1.5804916477229853 C 6.604325996670426 1.4263687476613163 6.7023064534326755 1.3521991385143026 6.839868473165308 1.3579909663126033 C 6.859223442010262 1.318596762047369 6.851460274792568 1.2873160043181509 6.81655453342025 1.2641486931249486 C 6.787513934122161 1.241519019955217 6.7246428694986955 1.2496976347365023 6.627949485580513 1.2886600993768282 C 6.675644495086912 1.2380651029559495 6.733163617567644 1.2139528522063439 6.800506853022709 1.2163070550666937 C 6.782430810991163 1.1925043534821167 6.720268451035 1.1988582573958642 6.614027919184879 1.2353769128385945 C 6.739851508738396 1.1594884912226056 6.800604605390612 1.090263522685393 6.796270917080211 1.0277101532576152 C 6.758628109406586 1.0735804518964767 6.703935659564406 1.1009185307869078 6.63219356755367 1.1097488280208854 C 6.718044584665188 1.048368487007953 6.752543024504574 1.0313921591153254 6.779595992321952 0.9799825596285816 C 6.810713829437997 0.9055767155924671 6.8151860002695965 0.8492713516798743 6.778105268711419 0.7177211025733259 C 6.832447439235278 0.7978861902851063 6.856975137548474 0.9321001914170334 6.851663925559034 1.1203468139077897 C 6.890015437899962 1.0276938611962978 6.890316841034331 0.9499644366514541 6.888899431699726 0.9013489256806274 C 6.804742788965207 0.6361630436189161 6.869267497812378 0.516962176990882 6.964584202549249 0.43014178223098404" fill="#bab9b4" transform="matrix(1,0,0,1,0,0)" fill-rule="nonzero"></path></g><g clip-path="url(&quot;#b376d3e49-d35c-4835-a99d-14d853400b6eda14584e-7d62-46d3-9df7-6a094f4ca30b&quot;)"><path d=" M 7.432312990907648 1.294354174807225 L 7.279240928800945 1.2823061954630808 C 7.221966187239973 1.27989497038812 7.186734604641309 1.3583493916615839 7.138518249172756 1.391194187277263 C 7.080526656913823 1.4036576141849986 6.982244797017203 1.398680389452563 6.843680815513556 1.3762625130799566 C 6.696449457389106 1.400700605055908 6.6055723393612 1.4748294840496285 6.571025023337863 1.5986491500611175 C 6.670569517986573 1.6361371831522276 6.788524041923834 1.620781915360671 7.052227346405671 1.5569659111808025 C 7.224776567817207 1.5894196973248664 7.3202887772898855 1.5411381736110443 7.3202887772898855 1.5411381736110443 L 7.414904923390112 1.5391749802223098 C 7.430561594316038 1.5374806058453103 7.440801154853962 1.4928647959278811 7.4225214620559505 1.4898996407681322 L 7.33873139070107 1.4792039025133241 C 7.330756426686251 1.4771185186647096 7.331709512273314 1.4721494399629327 7.33873139070107 1.469624170458751 L 7.425910210809949 1.471188208345212 C 7.444189903607961 1.4694938339682124 7.453231997639063 1.427403293554965 7.429290813533289 1.4231917957044427 L 7.339472679491007 1.4135794795272347 C 7.333803042152587 1.4113474671267645 7.333558661232827 1.4066227693447473 7.340205822250286 1.4047084521399644 L 7.439734024837678 1.4105980323061686 C 7.459260060326464 1.4045699696187672 7.465882783251947 1.3649639685564081 7.437135441057569 1.3619580832433662 L 7.334283657961446 1.353078909825437 C 7.326316839977286 1.3530707637947783 7.324508421171066 1.3434340095255948 7.334283657961446 1.3427660350115853 L 7.430170584844423 1.3449736093200797 C 7.455048562475942 1.3428393492875133 7.459268206357123 1.300227462912112 7.432312990907648 1.294354174807225" fill="#bab9b4" transform="matrix(1,0,0,1,0,0)" fill-rule="nonzero"></path></g><g clip-path="url(&quot;#b376d3e49-d35c-4835-a99d-14d853400b6eda14584e-7d62-46d3-9df7-6a094f4ca30b&quot;)"><path d=" M 7.358681019784106 1.2040635709867418 L 7.363454593750075 1.262177353705555 L 7.297724272365423 1.2643197597687803 L 7.294791701328309 1.2198831625258413 C 7.228246776877793 1.1930908676895395 7.2060895734862624 1.1411599222406419 7.2436509208533 1.059471526795694 L 7.282686699769554 1.1272709399676426 C 7.309307927962024 1.1397262208447194 7.3374280257956865 1.1216257407211978 7.330927493330083 1.0855958471179863 L 7.317877552214925 1.0019524043149621 C 7.392764012059899 1.0194826622923783 7.427417226481799 1.109667367714299 7.358681019784106 1.2040635709867418" fill="#bab9b4" transform="matrix(1,0,0,1,0,0)" fill-rule="nonzero"></path></g><g clip-path="url(&quot;#b376d3e49-d35c-4835-a99d-14d853400b6eda14584e-7d62-46d3-9df7-6a094f4ca30b&quot;)"><path d=" M 7.331742096395947 1.7810224844469869 L 7.318374460085102 1.5779093560041932 L 7.390678628211285 1.5934682745622157 L 7.4065715340263125 1.7868794804905566 C 7.4550567085066 1.828416090819016 7.477499022971183 1.8727630817247096 7.473898477420059 1.9199123071769795 C 7.4209329860775135 1.853334798603828 7.358509953140274 1.8303385540544574 7.286621232577682 1.8509398655901848 C 7.288714762456955 1.8123684104214741 7.303760481083483 1.7890544706764162 7.331742096395947 1.7810224844469869" fill="#bab9b4" transform="matrix(1,0,0,1,0,0)" fill-rule="nonzero"></path></g><g clip-path="url(&quot;#b376d3e49-d35c-4835-a99d-14d853400b6eda14584e-7d62-46d3-9df7-6a094f4ca30b&quot;)"><path d=" M 7.9410570436323535 1.52921238472678 C 7.888938739478307 1.5280719404345688 7.869771129338502 1.5562653525441585 7.883537921151621 1.6137844750248902 L 8.003683727336059 1.683221240359228 C 8.023494873897898 1.6991548763275484 8.041171760427169 1.7247904348103218 8.040959963630044 1.7509636313165662 L 8.04436500444536 1.8694069170933458 C 8.078887882376721 1.9201159579434457 8.116661026540884 1.9414911423917447 8.157692582968506 1.9335406164689017 L 8.149171834899558 1.7339302812093278 C 8.14740414624663 1.6902919949709365 8.13394690359854 1.6381166686022794 8.091416477529727 1.6136459925036932 Z" fill="#bab9b4" transform="matrix(1,0,0,1,0,0)" fill-rule="nonzero"></path></g><g clip-path="url(&quot;#b376d3e49-d35c-4835-a99d-14d853400b6eda14584e-7d62-46d3-9df7-6a094f4ca30b&quot;)"><path d=" M 8.077755584115168 1.1626410050875033 C 8.244529269789723 1.1626410050875033 8.379720794600686 1.2033467202887804 8.379720794600686 1.253550707238044 C 8.379720794600686 1.3037546941873075 8.244529269789723 1.3444604093885844 8.077755584115168 1.3444604093885844 C 7.910981898440615 1.3444604093885844 7.7757903736296505 1.3037546941873075 7.7757903736296505 1.253550707238044 C 7.7757903736296505 1.2033467202887804 7.910981898440615 1.1626410050875033 8.077755584115168 1.1626410050875033" fill="#bab9b4" transform="matrix(1,0,0,1,0,0)" fill-rule="nonzero"></path></g><g clip-path="url(&quot;#b376d3e49-d35c-4835-a99d-14d853400b6eda14584e-7d62-46d3-9df7-6a094f4ca30b&quot;)"><path d=" M 7.7757903736296505 1.4168215997293778 C 7.7757903736296505 1.4127078542467593 7.776702729063419 1.40865927700941 7.778454125655029 1.404692160078647 C 7.7981512277876455 1.4491694874748793 7.924650937885831 1.4834724225784568 8.077763730145827 1.4834724225784568 C 8.230876522405824 1.4834724225784568 8.357359940442691 1.4491694874748793 8.37705704257531 1.404692160078647 C 8.378816585197576 1.40865927700941 8.379728940631345 1.4127078542467593 8.379728940631345 1.4168215997293778 C 8.379728940631345 1.4670337327093 8.244537415820382 1.507739447910577 8.077763730145827 1.507739447910577 C 7.910981898440615 1.5077313018799183 7.7757903736296505 1.4670337327093 7.7757903736296505 1.4168215997293778" fill="#bab9b4" transform="matrix(1,0,0,1,0,0)" fill-rule="nonzero"></path></g><g clip-path="url(&quot;#b376d3e49-d35c-4835-a99d-14d853400b6eda14584e-7d62-46d3-9df7-6a094f4ca30b&quot;)"><path d=" M 7.7757903736296505 1.3658193017755664 L 7.7757903736296505 1.2804651925342254 C 7.7757903736296505 1.3306691794834893 7.910981898440615 1.3713748946847661 8.077763730145827 1.3713748946847661 C 8.244529269789723 1.3713748946847661 8.379728940631345 1.3306773255141477 8.379728940631345 1.2804651925342254 L 8.379728940631345 1.3658193017755664 C 8.379728940631345 1.4160232887248299 8.244537415820382 1.456729003926107 8.077763730145827 1.456729003926107 C 7.910981898440615 1.456729003926107 7.7757903736296505 1.4160232887248299 7.7757903736296505 1.3658193017755664" fill="#bab9b4" transform="matrix(1,0,0,1,0,0)" fill-rule="nonzero"></path></g><g clip-path="url(&quot;#SvgjsClipPath1000da14584e-7d62-46d3-9df7-6a094f4ca30b&quot;)"><path d=" M 7.791789177843239 1.302948237152101 L 7.805124230031451 1.302948237152101 L 7.805124230031451 1.4084800643349196 L 7.791789177843239 1.4084800643349196 Z" fill="#404040" transform="matrix(1,0,0,1,0,0)" fill-rule="nonzero"></path></g><g clip-path="url(&quot;#SvgjsClipPath1000da14584e-7d62-46d3-9df7-6a094f4ca30b&quot;)"><path d=" M 7.8184268439317055 1.421563741892725 L 7.8184268439317055 1.3160319147099067 L 7.831761896119916 1.3160319147099067 L 7.831761896119916 1.421563741892725 Z" fill="#404040" transform="matrix(1,0,0,1,0,0)" fill-rule="nonzero"></path></g><g clip-path="url(&quot;#SvgjsClipPath1000da14584e-7d62-46d3-9df7-6a094f4ca30b&quot;)"><path d=" M 7.845082759394264 1.4364099198835605 L 7.845082759394264 1.3308780927007422 L 7.858417811582474 1.3308780927007422 L 7.858417811582474 1.4364099198835605 Z" fill="#404040" transform="matrix(1,0,0,1,0,0)" fill-rule="nonzero"></path></g><g clip-path="url(&quot;#SvgjsClipPath1000da14584e-7d62-46d3-9df7-6a094f4ca30b&quot;)"><path d=" M 7.871720346242018 1.4454092697520795 L 7.871720346242018 1.3398774425692612 L 7.885063544460888 1.3398774425692612 L 7.885063544460888 1.4454092697520795 Z" fill="#404040" transform="matrix(1,0,0,1,0,0)" fill-rule="nonzero"></path></g><g clip-path="url(&quot;#SvgjsClipPath1000da14584e-7d62-46d3-9df7-6a094f4ca30b&quot;)"><path d=" M 7.898357933089773 1.4495087699297957 L 7.898357933089773 1.343968796716319 L 7.911701131308643 1.343968796716319 L 7.911701131308643 1.4495087699297957 Z" fill="#404040" transform="matrix(1,0,0,1,0,0)" fill-rule="nonzero"></path></g><g clip-path="url(&quot;#SvgjsClipPath1000da14584e-7d62-46d3-9df7-6a094f4ca30b&quot;)"><path d=" M 7.9250138485523305 1.4569868447696241 L 7.9250138485523305 1.3514468715561472 L 7.938348900740542 1.3514468715561472 L 7.938348900740542 1.4569868447696241 Z" fill="#404040" transform="matrix(1,0,0,1,0,0)" fill-rule="nonzero"></path></g><g clip-path="url(&quot;#SvgjsClipPath1000da14584e-7d62-46d3-9df7-6a094f4ca30b&quot;)"><path d=" M 7.951651435400085 1.4610741258708049 L 7.951651435400085 1.3555422986879866 L 7.9649864875882965 1.3555422986879866 L 7.9649864875882965 1.4610741258708049 Z" fill="#404040" transform="matrix(1,0,0,1,0,0)" fill-rule="nonzero"></path></g><g clip-path="url(&quot;#SvgjsClipPath1000da14584e-7d62-46d3-9df7-6a094f4ca30b&quot;)"><path d=" M 7.978301241324376 1.4610741258708049 L 7.978301241324376 1.3555422986879866 L 7.991636293512586 1.3555422986879866 L 7.991636293512586 1.4610741258708049 Z" fill="#404040" transform="matrix(1,0,0,1,0,0)" fill-rule="nonzero"></path></g><g clip-path="url(&quot;#SvgjsClipPath1000da14584e-7d62-46d3-9df7-6a094f4ca30b&quot;)"><path d=" M 8.004926609095595 1.4668048727660328 L 8.004926609095595 1.3612730455832145 L 8.018269807314464 1.3612730455832145 L 8.018269807314464 1.4668048727660328 Z" fill="#404040" transform="matrix(1,0,0,1,0,0)" fill-rule="nonzero"></path></g><g clip-path="url(&quot;#SvgjsClipPath1000da14584e-7d62-46d3-9df7-6a094f4ca30b&quot;)"><path d=" M 8.03158863409642 1.4668048727660328 L 8.03158863409642 1.3612730455832145 L 8.044923686284632 1.3612730455832145 L 8.044923686284632 1.4668048727660328 Z" fill="#404040" transform="matrix(1,0,0,1,0,0)" fill-rule="nonzero"></path></g><g clip-path="url(&quot;#SvgjsClipPath1000da14584e-7d62-46d3-9df7-6a094f4ca30b&quot;)"><path d=" M 8.058220111405907 1.4668048727660328 L 8.058220111405907 1.3612730455832145 L 8.071563309624777 1.3612730455832145 L 8.071563309624777 1.4668048727660328 Z" fill="#404040" transform="matrix(1,0,0,1,0,0)" fill-rule="nonzero"></path></g><g clip-path="url(&quot;#SvgjsClipPath1000da14584e-7d62-46d3-9df7-6a094f4ca30b&quot;)"><path d=" M 8.084869917330197 1.462717591664852 L 8.084869917330197 1.357177618451375 L 8.098204969518408 1.357177618451375 L 8.098204969518408 1.462717591664852 Z" fill="#404040" transform="matrix(1,0,0,1,0,0)" fill-rule="nonzero"></path></g><g clip-path="url(&quot;#SvgjsClipPath1000da14584e-7d62-46d3-9df7-6a094f4ca30b&quot;)"><path d=" M 8.11151361371622 1.462717591664852 L 8.11151361371622 1.357177618451375 L 8.12484866590443 1.357177618451375 L 8.12484866590443 1.462717591664852 Z" fill="#404040" transform="matrix(1,0,0,1,0,0)" fill-rule="nonzero"></path></g><g clip-path="url(&quot;#SvgjsClipPath1000da14584e-7d62-46d3-9df7-6a094f4ca30b&quot;)"><path d=" M 8.138169529178777 1.462717591664852 L 8.138169529178777 1.357177618451375 L 8.15149643533633 1.357177618451375 L 8.15149643533633 1.462717591664852 Z" fill="#404040" transform="matrix(1,0,0,1,0,0)" fill-rule="nonzero"></path></g><g clip-path="url(&quot;#SvgjsClipPath1000da14584e-7d62-46d3-9df7-6a094f4ca30b&quot;)"><path d=" M 8.164794896949996 1.462717591664852 L 8.164794896949996 1.357177618451375 L 8.178138095168865 1.357177618451375 L 8.178138095168865 1.462717591664852 Z" fill="#404040" transform="matrix(1,0,0,1,0,0)" fill-rule="nonzero"></path></g><g clip-path="url(&quot;#SvgjsClipPath1000da14584e-7d62-46d3-9df7-6a094f4ca30b&quot;)"><path d=" M 8.191444702874287 1.4561681666417345 L 8.191444702874287 1.3506281934282576 L 8.204779755062498 1.3506281934282576 L 8.204779755062498 1.4561681666417345 Z" fill="#404040" transform="matrix(1,0,0,1,0,0)" fill-rule="nonzero"></path></g><g clip-path="url(&quot;#SvgjsClipPath1000da14584e-7d62-46d3-9df7-6a094f4ca30b&quot;)"><path d=" M 8.218076180183774 1.4561681666417345 L 8.218076180183774 1.3506281934282576 L 8.231419378402643 1.3506281934282576 L 8.231419378402643 1.4561681666417345 Z" fill="#404040" transform="matrix(1,0,0,1,0,0)" fill-rule="nonzero"></path></g><g clip-path="url(&quot;#SvgjsClipPath1000da14584e-7d62-46d3-9df7-6a094f4ca30b&quot;)"><path d=" M 8.24473209564633 1.446234057418237 L 8.24473209564633 1.34069408420476 L 8.2580752938652 1.34069408420476 L 8.2580752938652 1.446234057418237 Z" fill="#404040" transform="matrix(1,0,0,1,0,0)" fill-rule="nonzero"></path></g><g clip-path="url(&quot;#SvgjsClipPath1000da14584e-7d62-46d3-9df7-6a094f4ca30b&quot;)"><path d=" M 8.271369682494086 1.446234057418237 L 8.271369682494086 1.34069408420476 L 8.284704734682297 1.34069408420476 L 8.284704734682297 1.446234057418237 Z" fill="#404040" transform="matrix(1,0,0,1,0,0)" fill-rule="nonzero"></path></g><g clip-path="url(&quot;#SvgjsClipPath1000da14584e-7d62-46d3-9df7-6a094f4ca30b&quot;)"><path d=" M 8.298019488418376 1.4347725636277813 L 8.298019488418376 1.3292325904143043 L 8.311354540606587 1.3292325904143043 L 8.311354540606587 1.4347725636277813 Z" fill="#404040" transform="matrix(1,0,0,1,0,0)" fill-rule="nonzero"></path></g><g clip-path="url(&quot;#SvgjsClipPath1000da14584e-7d62-46d3-9df7-6a094f4ca30b&quot;)"><path d=" M 8.324650965727862 1.4249484260931047 L 8.324650965727862 1.3194165989102864 L 8.337986017916073 1.3194165989102864 L 8.337986017916073 1.4249484260931047 Z" fill="#404040" transform="matrix(1,0,0,1,0,0)" fill-rule="nonzero"></path></g><g clip-path="url(&quot;#SvgjsClipPath1000da14584e-7d62-46d3-9df7-6a094f4ca30b&quot;)"><path d=" M 8.351291147601996 1.302948237152101 L 8.364626199790207 1.302948237152101 L 8.364626199790207 1.4084800643349196 L 8.351291147601996 1.4084800643349196 Z" fill="#404040" transform="matrix(1,0,0,1,0,0)" fill-rule="nonzero"></path></g><g clip-path="url(&quot;#c376d3e49-d35c-4835-a99d-14d853400b6eda14584e-7d62-46d3-9df7-6a094f4ca30b&quot;)"><path d=" M 8.077755584115168 1.1626410050875033 C 8.244529269789723 1.1626410050875033 8.379720794600686 1.2033467202887804 8.379720794600686 1.253550707238044 C 8.379720794600686 1.3037546941873075 8.244529269789723 1.3444604093885844 8.077755584115168 1.3444604093885844 C 7.910981898440615 1.3444604093885844 7.7757903736296505 1.3037546941873075 7.7757903736296505 1.253550707238044 C 7.7757903736296505 1.2033467202887804 7.910981898440615 1.1626410050875033 8.077755584115168 1.1626410050875033" fill="#bab9b4" transform="matrix(1,0,0,1,0,0)" fill-rule="nonzero"></path></g><g clip-path="url(&quot;#c376d3e49-d35c-4835-a99d-14d853400b6eda14584e-7d62-46d3-9df7-6a094f4ca30b&quot;)"><path d=" M 7.823208418093655 1.2412583469741403 C 7.823208418093655 1.2374704427178678 7.824487344907063 1.233755852737523 7.826955592196635 1.2301553071863995 C 7.847638364038948 1.260401519021969 7.951296604170277 1.2833814715100225 8.07606120973817 1.2833814715100225 C 8.200825815306061 1.2833814715100225 8.30448405543739 1.260401519021969 8.325158681249045 1.2301553071863995 C 8.327626928538617 1.2337639987681817 8.328914001382683 1.2374704427178678 8.328914001382683 1.2412583469741403 C 8.328914001382683 1.276791332707174 8.215708613319416 1.3055956971161626 8.07605306370751 1.3055956971161626 C 7.9364138061569225 1.3055956971161626 7.823208418093655 1.276791332707174 7.823208418093655 1.2412583469741403" fill="#404040" transform="matrix(1,0,0,1,0,0)" fill-rule="nonzero"></path></g><g clip-path="url(&quot;#c376d3e49-d35c-4835-a99d-14d853400b6eda14584e-7d62-46d3-9df7-6a094f4ca30b&quot;)"><path d=" M 8.075686492327872 1.1549430061150787 C 8.13394690359854 1.1549430061150787 8.181177589357397 1.1699154104656786 8.181177589357397 1.1883824619688392 C 8.181177589357397 1.2068576595026588 8.13394690359854 1.2218300638532587 8.075686492327872 1.2218300638532587 C 8.017426081057202 1.2218300638532587 7.970195395298346 1.2068576595026588 7.970195395298346 1.1883824619688392 C 7.970195395298346 1.1699154104656786 8.017426081057202 1.1549430061150787 8.075686492327872 1.1549430061150787" fill="#404040" transform="matrix(1,0,0,1,0,0)" fill-rule="nonzero"></path></g><g clip-path="url(&quot;#c376d3e49-d35c-4835-a99d-14d853400b6eda14584e-7d62-46d3-9df7-6a094f4ca30b&quot;)"><path d=" M 8.01737720487325 1.5622445390476078 C 7.9786998513059775 1.5714576997225418 7.950710089962854 1.603015422494154 7.933391628782563 1.6569339994237622 C 7.939159018488888 1.5922382239327595 7.961031110807364 1.5583833205154076 7.999016051768653 1.5553611431410481 Z" fill="#404040" transform="matrix(1,0,0,1,0,0)" fill-rule="nonzero"></path></g><g clip-path="url(&quot;#c376d3e49-d35c-4835-a99d-14d853400b6eda14584e-7d62-46d3-9df7-6a094f4ca30b&quot;)"><path d=" M 8.00590759370587 1.5760113308607275 L 7.977143959450175 1.5925314810364708 C 8.041579061960102 1.6151855922981782 8.082227754946768 1.638686890748385 8.099065600318198 1.663051668448409 C 8.097990324271256 1.637098414769948 8.06693765540048 1.6080822535638348 8.00590759370587 1.5760113308607275" fill="#404040" transform="matrix(1,0,0,1,0,0)" fill-rule="nonzero"></path></g><g clip-path="url(&quot;#c376d3e49-d35c-4835-a99d-14d853400b6eda14584e-7d62-46d3-9df7-6a094f4ca30b&quot;)"><path d=" M 8.011577231044292 1.8014934594921757 L 8.013996602149911 1.8082546649388556 C 8.079140409327138 1.7848999950405042 8.133523310004291 1.7515664375853062 8.175654580570832 1.7091989321296646 L 8.170555165378516 1.7041239550293252 C 8.12918962169389 1.7457338796337125 8.075702784389188 1.7784890689121464 8.011577231044292 1.8014934594921757" fill="#404040" transform="matrix(1,0,0,1,0,0)" fill-rule="nonzero"></path></g><g clip-path="url(&quot;#c376d3e49-d35c-4835-a99d-14d853400b6eda14584e-7d62-46d3-9df7-6a094f4ca30b&quot;)"><path d=" M 8.011520208829682 1.8373604324822144 L 8.01406177039518 1.8440890538062598 C 8.083645164281373 1.8178181049321116 8.138036210989183 1.7844682554155962 8.175703456754784 1.7449925908437753 L 8.170506289194565 1.7400316581726571 C 8.133580332218902 1.7787253038012474 8.080093494914202 1.8114723470490228 8.011520208829682 1.8373604324822144" fill="#404040" transform="matrix(1,0,0,1,0,0)" fill-rule="nonzero"></path></g><g clip-path="url(&quot;#c376d3e49-d35c-4835-a99d-14d853400b6eda14584e-7d62-46d3-9df7-6a094f4ca30b&quot;)"><path d=" M 8.01147133264573 1.8732355515029113 L 8.014102500548473 1.8799234426736635 C 8.08814177320495 1.8507443608543772 8.1425246738821 1.817386365307203 8.175760478969394 1.780786249557886 L 8.170441120949295 1.7759475073466475 C 8.137962896713255 1.8117330200300994 8.084476059408555 1.8444719172472162 8.01147133264573 1.8732355515029113" fill="#404040" transform="matrix(1,0,0,1,0,0)" fill-rule="nonzero"></path></g><g clip-path="url(&quot;#c376d3e49-d35c-4835-a99d-14d853400b6eda14584e-7d62-46d3-9df7-6a094f4ca30b&quot;)"><path d=" M 8.011430602492435 1.9090943784622914 L 8.014143230701766 1.9157415394797501 C 8.092646528159182 1.8836624707459841 8.14705386692831 1.850280037106834 8.17584193927598 1.816547324149362 L 8.170367806673367 1.811879648581955 C 8.142329169146292 1.8447407362589516 8.08885862390291 1.8774551953840923 8.011430602492435 1.9090943784622914" fill="#404040" transform="matrix(1,0,0,1,0,0)" fill-rule="nonzero"></path></g><g clip-path="url(&quot;#c376d3e49-d35c-4835-a99d-14d853400b6eda14584e-7d62-46d3-9df7-6a094f4ca30b&quot;)"><path d=" M 8.011389872339143 1.9449532054216712 L 8.014183960855059 1.9515759283471539 C 8.097159429144074 1.916580580637591 8.151583059974518 1.883173708906465 8.175931545613226 1.8522758146182035 L 8.17028634636678 1.8478280818785802 C 8.14668729554867 1.8777565985184625 8.093233042366604 1.91043032749031 8.011389872339143 1.9449532054216712" fill="#404040" transform="matrix(1,0,0,1,0,0)" fill-rule="nonzero"></path></g><g clip-path="url(&quot;#c376d3e49-d35c-4835-a99d-14d853400b6eda14584e-7d62-46d3-9df7-6a094f4ca30b&quot;)"><path d=" M 8.011357288216507 1.9808038863503925 L 8.014216544977694 1.9874021711838994 C 8.102902380758422 1.948961052505727 8.155835287978334 1.9164339520857356 8.176037444011788 1.8879798669950691 L 8.170172301937559 1.8838172453284987 C 8.15102912988973 1.9107968988699495 8.097591168768982 1.9434217516578451 8.011357288216507 1.9808038863503925" fill="#404040" transform="matrix(1,0,0,1,0,0)" fill-rule="nonzero"></path></g><g clip-path="url(&quot;#c376d3e49-d35c-4835-a99d-14d853400b6eda14584e-7d62-46d3-9df7-6a094f4ca30b&quot;)"><path d=" M 7.993916636576337 1.69799813997402 C 8.054889676056336 1.724880041147567 8.117394169300162 1.7376041410363792 8.179695011777522 1.7358120142914761 L 8.179491361011056 1.7286272152505464 C 8.118265794580639 1.730386757872815 8.05680399326112 1.7178663087504686 7.996816623490816 1.6914161472018303 Z" fill="#404040" transform="matrix(1,0,0,1,0,0)" fill-rule="nonzero"></path></g><g clip-path="url(&quot;#c376d3e49-d35c-4835-a99d-14d853400b6eda14584e-7d62-46d3-9df7-6a094f4ca30b&quot;)"><path d=" M 7.993916636576337 1.7283013740242001 C 8.054881530025678 1.7551914212284059 8.117386023269503 1.7679073750865595 8.179695011777522 1.7661152483416562 L 8.179491361011056 1.7589304493007265 C 8.118265794580639 1.760689991922995 8.056795847230461 1.748169542800649 7.996816623490816 1.7217193812520106 Z" fill="#404040" transform="matrix(1,0,0,1,0,0)" fill-rule="nonzero"></path></g><g clip-path="url(&quot;#c376d3e49-d35c-4835-a99d-14d853400b6eda14584e-7d62-46d3-9df7-6a094f4ca30b&quot;)"><path d=" M 7.993916636576337 1.7586046080743802 C 8.054889676056336 1.7854783632172686 8.117394169300162 1.798202463106081 8.179695011777522 1.7964103363611776 L 8.179491361011056 1.7892255373202477 C 8.118265794580639 1.7909932259731751 8.05680399326112 1.7784727768508288 7.996816623490816 1.7520226153021905 Z" fill="#404040" transform="matrix(1,0,0,1,0,0)" fill-rule="nonzero"></path></g><g clip-path="url(&quot;#c376d3e49-d35c-4835-a99d-14d853400b6eda14584e-7d62-46d3-9df7-6a094f4ca30b&quot;)"><path d=" M 7.993916636576337 1.788899696093902 C 8.054881530025678 1.815781597267449 8.117386023269503 1.8284975511256025 8.179695011777522 1.8267135704113582 L 8.179491361011056 1.8195206253397695 C 8.118265794580639 1.8212801679620383 8.056795847230461 1.8087678648703507 7.996816623490816 1.7823177033217124 Z" fill="#404040" transform="matrix(1,0,0,1,0,0)" fill-rule="nonzero"></path></g><g clip-path="url(&quot;#c376d3e49-d35c-4835-a99d-14d853400b6eda14584e-7d62-46d3-9df7-6a094f4ca30b&quot;)"><path d=" M 7.993916636576337 1.8191947841134235 C 8.054881530025678 1.8460766852869703 8.117386023269503 1.858792639145124 8.179695011777522 1.8570086584308794 L 8.179491361011056 1.8498238593899496 C 8.118265794580639 1.8515834020122182 8.056795847230461 1.839062952889872 7.996816623490816 1.8126127913412338 Z" fill="#404040" transform="matrix(1,0,0,1,0,0)" fill-rule="nonzero"></path></g><g clip-path="url(&quot;#c376d3e49-d35c-4835-a99d-14d853400b6eda14584e-7d62-46d3-9df7-6a094f4ca30b&quot;)"><path d=" M 7.993916636576337 1.8494980181636036 C 8.054889676056336 1.876388065367809 8.117394169300162 1.8891040192259627 8.179695011777522 1.8873118924810597 L 8.179491361011056 1.88012709344013 C 8.118265794580639 1.8818866360623985 8.05680399326112 1.8693661869400522 7.996816623490816 1.8429241714220725 Z" fill="#404040" transform="matrix(1,0,0,1,0,0)" fill-rule="nonzero"></path></g><g clip-path="url(&quot;#c376d3e49-d35c-4835-a99d-14d853400b6eda14584e-7d62-46d3-9df7-6a094f4ca30b&quot;)"><path d=" M 7.993916636576337 1.879793106183125 C 8.054881530025678 1.906675007356672 8.117386023269503 1.9193991072454841 8.179695011777522 1.917606980500581 L 8.179491361011056 1.9104221814596514 C 8.118265794580639 1.9121817240819197 8.056795847230461 1.8996612749595736 7.996816623490816 1.8732111134109353 Z" fill="#404040" transform="matrix(1,0,0,1,0,0)" fill-rule="nonzero"></path></g><g clip-path="url(&quot;#c376d3e49-d35c-4835-a99d-14d853400b6eda14584e-7d62-46d3-9df7-6a094f4ca30b&quot;)"><path d=" M 7.993916636576337 1.8949447232082153 C 8.054881530025678 1.9218184783511034 8.117386023269503 1.9345425782399157 8.179695011777522 1.9327504514950125 L 8.179491361011056 1.9255656524540827 C 8.118265794580639 1.9273251950763515 8.056795847230461 1.914812891984664 7.996816623490816 1.8883627304360258 Z" fill="#404040" transform="matrix(1,0,0,1,0,0)" fill-rule="nonzero"></path></g><g clip-path="url(&quot;#c376d3e49-d35c-4835-a99d-14d853400b6eda14584e-7d62-46d3-9df7-6a094f4ca30b&quot;)"><path d=" M 8.011601669136267 1.76355739471484 L 8.013964018027275 1.7703511842841546 C 8.076892104865351 1.748430215781726 8.131283151573161 1.7151048043571864 8.175630142478855 1.671303597505622 L 8.170571457439834 1.6661878902519895 C 8.126990193416052 1.709231516252299 8.073503356111353 1.7419867055307332 8.011601669136267 1.76355739471484" fill="#404040" transform="matrix(1,0,0,1,0,0)" fill-rule="nonzero"></path></g><g clip-path="url(&quot;#c376d3e49-d35c-4835-a99d-14d853400b6eda14584e-7d62-46d3-9df7-6a094f4ca30b&quot;)"><path d=" M 7.7069238304414185 1.2311735610187309 C 7.748069431298262 1.4231917957044424 7.749576446970113 1.4813788926991835 7.791406314402283 1.554106654419616 L 7.915812494621195 1.6956520831443287 L 7.99117957027503 1.8175818700430109 L 7.9983725153466185 1.9001907669523865 C 7.997134318686504 1.9274473855362313 7.961886444026523 1.9281886743261685 7.958155561984861 1.9029522713456692 L 7.9511662676797386 1.8388837402153824 L 7.89749207166989 1.7741390885404273 C 7.890103621862494 1.7658545753605797 7.887415431745139 1.7680947337917086 7.889655590176268 1.7768191326271232 L 7.911030774624567 1.8644215463302518 L 7.894461748264872 1.9586222448668873 C 7.888058968167172 1.989235028082096 7.848876560699063 1.981936184611945 7.853511652143835 1.9479183605814199 L 7.861649536771827 1.8745715005309302 L 7.835411172020313 1.7904555879497044 C 7.828641820542975 1.7786519895253197 7.821359269134142 1.7807373733739342 7.823029205419164 1.7927853527180784 L 7.850139195451154 1.8745715005309302 L 7.828381147561899 1.9763968837640626 C 7.820430621639055 2.0051523719890993 7.773126621604272 2.0059018068096948 7.782494556861719 1.9711182558972569 L 7.796025113785738 1.881479334529466 L 7.764654749719275 1.79941622167422 C 7.75943314406708 1.7887204834194117 7.753079240153332 1.7947241080148373 7.7533317671037505 1.803187833869175 L 7.763204756262035 1.8929896758501392 L 7.740322556141885 1.998016449132121 C 7.731272316080124 2.0318876446107903 7.6851169063682105 2.0251753153480623 7.696211800125292 1.9867016125472556 L 7.707656973200697 1.891547828423558 L 7.684497808038153 1.803073789439954 C 7.673085219085383 1.781763773236924 7.656239227683294 1.7750677360355132 7.6496246507884695 1.7963858982692018 C 7.636623585857263 1.8938613011306145 7.581874113800473 1.9198389929010518 7.569785404303035 1.8886722796010547 C 7.586647687766442 1.8513390210924587 7.587038697238057 1.809851286947951 7.59396282329791 1.7761267200211377 C 7.622311009990014 1.7228435334829046 7.627638514040772 1.6519486286606682 7.631524170664949 1.5799295716075383 C 7.60567681538505 1.4789106454096126 7.541583846162787 1.4558166484923383 7.4944183286492 1.2934744034960906 C 7.534040621772877 1.2048455899299721 7.6101408401859905 1.1957220355922835 7.7069238304414185 1.2311735610187309" fill="#bab9b4" transform="matrix(1,0,0,1,0,0)" fill-rule="nonzero"></path></g><g clip-path="url(&quot;#c376d3e49-d35c-4835-a99d-14d853400b6eda14584e-7d62-46d3-9df7-6a094f4ca30b&quot;)"><path d=" M 6.975182188436153 0.4699677261211268 C 6.89551400859455 0.5806559907108709 6.86919418353645 0.6761519081222317 6.9371157871682785 0.8120032614165477 L 6.893974408800065 0.8570019347749335 C 6.85349678245723 0.6857560782687808 6.880566042335927 0.5567473907277315 6.975182188436153 0.4699677261211268" fill="#bab9b4" transform="matrix(1,0,0,1,0,0)" fill-rule="nonzero"></path></g><g clip-path="url(&quot;#c376d3e49-d35c-4835-a99d-14d853400b6eda14584e-7d62-46d3-9df7-6a094f4ca30b&quot;)"><path d=" M 7.057066088616908 0.582659914252899 C 7.058304285277024 0.5629791041815991 7.064576728884185 0.5508170804082339 7.075891565469051 0.5461901349941203 C 7.0826935010690235 0.5219882779072694 7.081724123420644 0.503301283576325 7.0729915785545705 0.49012100597062835 C 7.066108182648011 0.48599096842669254 7.056055980815236 0.4938844721349249 7.042851265117563 0.5138015170953256 C 7.055795307834159 0.5062990228587084 7.062947522752454 0.5055740261300885 7.064299763841791 0.5116265269094659 L 7.064299763841791 0.5338488985462647 L 7.040676274931704 0.5280407786866468 L 7.058516082074148 0.5509962930827241 L 7.039959424233743 0.5531712832685838 Z" fill="#404040" transform="matrix(1,0,0,1,0,0)" fill-rule="nonzero"></path></g><g clip-path="url(&quot;#c376d3e49-d35c-4835-a99d-14d853400b6eda14584e-7d62-46d3-9df7-6a094f4ca30b&quot;)"><path d=" M 6.955126660954555 0.7366117476707363 C 6.9832386127575585 0.710063833754194 7.007399739691116 0.6930712138002489 7.027618187785887 0.6856257417782423 L 7.025435051569368 0.6590452437390655" fill="#404040" transform="matrix(1,0,0,1,0,0)" fill-rule="nonzero"></path></g><g clip-path="url(&quot;#c376d3e49-d35c-4835-a99d-14d853400b6eda14584e-7d62-46d3-9df7-6a094f4ca30b&quot;)"><path d=" M 7.285374889886908 0.8097386648934428 C 7.2527581831296715 0.7844126555756981 7.259226131472641 0.7657663913980469 7.287085556325225 0.7736273109836448 C 7.267624689081709 0.7774966755465037 7.267054466935604 0.7895365088599893 7.285374889886908 0.8097386648934428" fill="#404040" transform="matrix(1,0,0,1,0,0)" fill-rule="nonzero"></path></g><g clip-path="url(&quot;#c376d3e49-d35c-4835-a99d-14d853400b6eda14584e-7d62-46d3-9df7-6a094f4ca30b&quot;)"><path d=" M 7.236181010739318 0.7757045488016007 L 7.198603371310963 0.7809505925457717 C 7.189887118506206 0.7810239068216995 7.189333188421418 0.7813090178947524 7.1889177408578275 0.7817570495809781 L 7.1709801813474785 0.8009490978127589 C 7.168927381621499 0.8031485260905945 7.171615571738853 0.8064965446912999 7.174206009488304 0.8049650909274736 L 7.202049142279572 0.7885019629663408 C 7.202246198888197 0.7883808815539266 7.202460410982505 0.7882902533601812 7.202684532670947 0.7882331439546053 Z" fill="#404040" transform="matrix(1,0,0,1,0,0)" fill-rule="nonzero"></path></g><g clip-path="url(&quot;#c376d3e49-d35c-4835-a99d-14d853400b6eda14584e-7d62-46d3-9df7-6a094f4ca30b&quot;)"><path d=" M 6.705206440347156 1.5255385248997284 C 6.659865633701106 1.5218809571339944 6.6263365715101 1.513775656628637 6.60466812995809 1.5012144773529978 L 6.5912760555552685 1.5277460992082228 C 6.606313628151137 1.540592389556915 6.631664075560858 1.5482007821920944 6.667286667631137 1.5505794231444205 C 6.679929307213363 1.542237887749962 6.692580092826247 1.5339044983861627 6.705206440347156 1.5255385248997284" fill="#404040" transform="matrix(1,0,0,1,0,0)" fill-rule="nonzero"></path></g><g clip-path="url(&quot;#c376d3e49-d35c-4835-a99d-14d853400b6eda14584e-7d62-46d3-9df7-6a094f4ca30b&quot;)"><path d=" M 6.704701386446319 1.3334632679994063 C 6.56452449087226 1.4234280305935434 6.506288517693567 1.5061183878095055 6.530026051032874 1.5815343396472927 C 6.545902664786585 1.4921397991992609 6.60412234590396 1.4094412959526403 6.704701386446319 1.3334632679994063" fill="#404040" transform="matrix(1,0,0,1,0,0)" fill-rule="nonzero"></path></g><g clip-path="url(&quot;#c376d3e49-d35c-4835-a99d-14d853400b6eda14584e-7d62-46d3-9df7-6a094f4ca30b&quot;)"><path d=" M 7.238046451760149 1.8781720460820537 C 7.384699441707835 1.877536655690679 7.4758535247781355 1.930176305806879 7.511508700971049 2.036090996430654 C 7.453834803907803 1.9684870879945127 7.362680720837503 1.915839291847654 7.238046451760149 1.8781720460820537" fill="#bab9b4" transform="matrix(1,0,0,1,0,0)" fill-rule="nonzero"></path></g><g clip-path="url(&quot;#SvgjsClipPath1000da14584e-7d62-46d3-9df7-6a094f4ca30b&quot;)"><path d=" M 7.661992116583826 1.949421738695281 L 7.590461821370216 1.9702511390894504 L 7.577982102401163 2.0656004279489557 L 7.657454777506958 2.0266298172779713 Z" fill="#bab9b4" transform="matrix(1,0,0,1,0,0)" fill-rule="nonzero"></path></g><g clip-path="url(&quot;#SvgjsClipPath1000da14584e-7d62-46d3-9df7-6a094f4ca30b&quot;)"><path d=" M 7.456143443725709 1.810173142494817 L 7.510257525391125 1.8427409730681021 L 7.528398735667939 1.975912282275722 L 7.539021159646819 1.8332671394120916 L 7.483766633689193 1.8022307626026328 Z" fill="#bab9b4" transform="matrix(1,0,0,1,0,0)" fill-rule="nonzero"></path></g><g clip-path="url(&quot;#SvgjsClipPath1000da14584e-7d62-46d3-9df7-6a094f4ca30b&quot;)"><path d=" M 7.232876477265997 1.699663814306243 L 7.0338363641525286 1.7560506385254224 L 7.071666530531302 1.7886184690987075 L 7.294924792792939 1.7227496651928589 Z" fill="#bab9b4" transform="matrix(1,0,0,1,0,0)" fill-rule="nonzero"></path></g><g clip-path="url(&quot;#SvgjsClipPath1000da14584e-7d62-46d3-9df7-6a094f4ca30b&quot;)"><path d=" M 8.292270412908344 1.8345379811069376 L 8.292270412908344 1.6697356348517776 L 8.230873779834095 1.673295450249608 L 8.230873779834095 1.9033637941418764 Z" fill="#bab9b4" transform="matrix(1,0,0,1,0,0)" fill-rule="nonzero"></path></g><g clip-path="url(&quot;#d376d3e49-d35c-4835-a99d-14d853400b6eda14584e-7d62-46d3-9df7-6a094f4ca30b&quot;)"><path d=" M 8.321028643705109 1.5239989251052433 C 8.274205259479187 1.5995533594642275 8.1949280891092 1.6116094848390305 8.083205278625806 1.560191739321628 C 8.181812979748772 1.5761986895658764 8.26109015011876 1.5641344181604147 8.321028643705109 1.5239989251052433" fill="#bab9b4" transform="matrix(1,0,0,1,0,0)" fill-rule="nonzero"></path></g><g clip-path="url(&quot;#d376d3e49-d35c-4835-a99d-14d853400b6eda14584e-7d62-46d3-9df7-6a094f4ca30b&quot;)"><path d=" M 7.686224766537787 1.1688482804493954 C 7.628632329781127 1.0913550907936524 7.5566865870039255 1.094532042750526 7.470420122328815 1.1783546982280406 C 7.563757341615634 1.1340647295369573 7.635703084392835 1.1308959236107423 7.686224766537787 1.1688482804493954" fill="#bab9b4" transform="matrix(1,0,0,1,0,0)" fill-rule="nonzero"></path></g><g clip-path="url(&quot;#d376d3e49-d35c-4835-a99d-14d853400b6eda14584e-7d62-46d3-9df7-6a094f4ca30b&quot;)"><path d=" M 7.6764739678393825 1.1081603520424483 C 7.657135291055746 1.020509062155368 7.5990948226128605 0.9992234840443142 7.502336270449408 1.0443036177092864 C 7.598320949700288 1.0373061773735055 7.656369564173833 1.0585917554845596 7.6764739678393825 1.1081603520424483" fill="#bab9b4" transform="matrix(1,0,0,1,0,0)" fill-rule="nonzero"></path></g><g clip-path="url(&quot;#SvgjsClipPath1000da14584e-7d62-46d3-9df7-6a094f4ca30b&quot;)"><path d=" M 8.400873565157355 1.908145698157797 L 7.654086204525562 2.1955213677336727 L 7.567591650992011 2.182463280587856 L 8.400873565157355 1.8647436468085068 Z" fill="#bab9b4" transform="matrix(1,0,0,1,0,0)" fill-rule="nonzero"></path></g><g clip-path="url(&quot;#e376d3e49-d35c-4835-a99d-14d853400b6eda14584e-7d62-46d3-9df7-6a094f4ca30b&quot;)"><path d=" M 7.3406375618751945 1.216828401028847 L 7.343219853593986 1.267113848284697 L 7.343219853593986 1.2686941782324752 L 7.354290309259093 1.266063010329731 L 7.350046227285936 1.21095511292396 C 7.346967027696966 1.212983474557964 7.343838951924044 1.2149466679466987 7.3406375618751945 1.216828401028847" fill="#404040" transform="matrix(1,0,0,1,0,0)" fill-rule="nonzero"></path></g><g clip-path="url(&quot;#e376d3e49-d35c-4835-a99d-14d853400b6eda14584e-7d62-46d3-9df7-6a094f4ca30b&quot;)"><path d=" M 7.344808329572423 1.1328591169994768 C 7.33535078797773 1.1825499040172454 7.31356015596584 1.1892866713719494 7.279436433536753 1.1530612730329302 C 7.306839680672454 1.168897156633347 7.328630312684344 1.162160389278643 7.344808329572423 1.1328591169994768" fill="#404040" transform="matrix(1,0,0,1,0,0)" fill-rule="nonzero"></path></g><g clip-path="url(&quot;#e376d3e49-d35c-4835-a99d-14d853400b6eda14584e-7d62-46d3-9df7-6a094f4ca30b&quot;)"><path d=" M 7.362159374875349 1.575742511848992 L 7.380227270876237 1.7660337880350698 C 7.3742725224647625 1.7764525612474837 7.366387164787189 1.7794584465605259 7.356554905782198 1.7750677360355134 C 7.362631844653551 1.772648364929894 7.366004301346232 1.7659523277284832 7.3666804218909006 1.7550040625232568 L 7.348425167184864 1.5766467212521023 Z" fill="#404040" transform="matrix(1,0,0,1,0,0)" fill-rule="nonzero"></path></g><g clip-path="url(&quot;#e376d3e49-d35c-4835-a99d-14d853400b6eda14584e-7d62-46d3-9df7-6a094f4ca30b&quot;)"><path d=" M 7.097046807089566 0.9235550052561087 C 7.054133517579794 0.9300962678750051 7.050353759354181 0.9368819114136611 7.000109042251624 0.9069289566818028 L 7.0163440813543145 1.1071502442407757 Z" fill="#bab9b4" transform="matrix(1,0,0,1,0,0)" fill-rule="nonzero"></path></g><g clip-path="url(&quot;#e376d3e49-d35c-4835-a99d-14d853400b6eda14584e-7d62-46d3-9df7-6a094f4ca30b&quot;)"><path d=" M 7.4847571362880405 0.670946594531354 C 7.530260863547262 0.6993110732847754 7.572318819837876 0.7645689248912252 7.610914713098562 0.8667120033200448 C 7.578526095199767 0.7493521396208659 7.5370057769326255 0.6739850639670306 7.486370050358453 0.6406189223891978 Z" fill="#bab9b4" transform="matrix(1,0,0,1,0,0)" fill-rule="nonzero"></path></g><g clip-path="url(&quot;#e376d3e49-d35c-4835-a99d-14d853400b6eda14584e-7d62-46d3-9df7-6a094f4ca30b&quot;)"><path d=" M 8.139274407649298 1.68876054120711 C 8.094292026352228 1.6996192000750914 8.043330458551711 1.7119278524003125 7.996824769521474 1.6914242932324888 L 7.993924782606995 1.6980062860046787 C 8.042654338007043 1.7194873688515402 8.094878540559652 1.7068854594226077 8.140968782026297 1.6957498355122325 L 8.17577677103071 1.6880273984478316 L 8.17451413627862 1.6809484978054643 Z" fill="#404040" transform="matrix(1,0,0,1,0,0)" fill-rule="nonzero"></path></g><g clip-path="url(&quot;#e376d3e49-d35c-4835-a99d-14d853400b6eda14584e-7d62-46d3-9df7-6a094f4ca30b&quot;)"><path d=" M 7.983057977708356 1.7433063624974345 L 7.984581285441523 1.7503282409251912 C 8.014452779866795 1.74387658464354 8.041725690511957 1.7308755197123338 8.073047178394468 1.7082051163893093 L 8.068835680543947 1.7023888504990325 C 8.038353233819276 1.7244401554919997 8.011903072270638 1.7370665030129082 7.983057977708356 1.7433063624974345" fill="#404040" transform="matrix(1,0,0,1,0,0)" fill-rule="nonzero"></path></g><g clip-path="url(&quot;#e376d3e49-d35c-4835-a99d-14d853400b6eda14584e-7d62-46d3-9df7-6a094f4ca30b&quot;)"><path d=" M 8.110250100412527 1.6746923462596206 C 8.082146294640182 1.6908703631477007 8.033099044044446 1.6999857714547308 7.991863836850357 1.6818038310246228 L 7.988971995966536 1.6883858237968123 C 8.032488091745048 1.707577872028593 8.08420724039682 1.6979655558513853 8.113834353902332 1.6809240597134885 C 8.13262724663184 1.670114277029459 8.143893207032754 1.655989059867359 8.145546851256459 1.641138845976639 L 8.138402782368823 1.6403405349720912 C 8.137017957156852 1.6528609840944373 8.12700648547737 1.665055591990437 8.110250100412527 1.6746923462596206" fill="#404040" transform="matrix(1,0,0,1,0,0)" fill-rule="nonzero"></path></g><g clip-path="url(&quot;#e376d3e49-d35c-4835-a99d-14d853400b6eda14584e-7d62-46d3-9df7-6a094f4ca30b&quot;)"><path d=" M 7.4368910601378095 2.3066043825431226 C 7.2887799307022245 2.1241577338813253 6.813059886267689 1.7806396210060302 6.264612080112721 1.7039447423548348 L 6.264612080112721 1.601011498952126 C 6.869731821559921 1.697647860655698 7.3462175928763696 1.927822102946529 7.566103398445326 2.240955521465058 Z" fill="#bab9b4" transform="matrix(1,0,0,1,0,0)" fill-rule="nonzero"></path></g></g></g><defs><clipPath id="SvgjsClipPath1001"><path d=" M 6.130886840820313 -0.06169773969538328 h 2.4340176687434774 v 2.651532979390766 h -2.4340176687434774 Z"></path></clipPath><clipPath id="SvgjsClipPath1000da14584e-7d62-46d3-9df7-6a094f4ca30b"><path d=" M 6.130886840820313 -0.06169773969538328 L 8.56490450956379 -0.06169773969538328 L 8.56490450956379 2.5898352396953825 L 6.130886840820313 2.5898352396953825 Z"></path></clipPath><clipPath id="a376d3e49-d35c-4835-a99d-14d853400b6eda14584e-7d62-46d3-9df7-6a094f4ca30b"><path d=" M 6.130886840820313 2.5898418685444033 L 8.564904509563792 2.5898418685444033 L 8.564904509563792 -0.0616911108463626 L 6.130886840820313 -0.0616911108463626 Z"></path></clipPath><clipPath id="b376d3e49-d35c-4835-a99d-14d853400b6eda14584e-7d62-46d3-9df7-6a094f4ca30b"><path d=" M 6.130886840820313 2.5898418685444033 L 8.564904509563792 2.5898418685444033 L 8.564904509563792 -0.0616911108463626 L 6.130886840820313 -0.0616911108463626 Z"></path></clipPath><clipPath id="c376d3e49-d35c-4835-a99d-14d853400b6eda14584e-7d62-46d3-9df7-6a094f4ca30b"><path d=" M 6.130886840820313 2.5898418685444033 L 8.564904509563792 2.5898418685444033 L 8.564904509563792 -0.0616911108463626 L 6.130886840820313 -0.0616911108463626 Z"></path></clipPath><clipPath id="d376d3e49-d35c-4835-a99d-14d853400b6eda14584e-7d62-46d3-9df7-6a094f4ca30b"><path d=" M 6.130886840820313 2.5898418685444033 L 8.564904509563792 2.5898418685444033 L 8.564904509563792 -0.0616911108463626 L 6.130886840820313 -0.0616911108463626 Z"></path></clipPath><clipPath id="e376d3e49-d35c-4835-a99d-14d853400b6eda14584e-7d62-46d3-9df7-6a094f4ca30b"><path d=" M 6.130886840820313 2.5898418685444033 L 8.564904509563792 2.5898418685444033 L 8.564904509563792 -0.0616911108463626 L 6.130886840820313 -0.0616911108463626 Z"></path></clipPath></defs></svg>