<svg xmlns="http://www.w3.org/2000/svg" version="1.1" xmlns:xlink="http://www.w3.org/1999/xlink" xmlns:svgjs="http://svgjs.dev/svgjs" viewBox="0 0 6.869246980480333 7.6007778089652565"><g transform="matrix(1,0,0,1,0.6019925698300108,4.3256477391352455)"><g><path d=" M 0.872115173339843 1.0725 C 0.872115173339843 1.3065 1.077615173339843 1.419 1.3161151733398428 1.419 C 1.670115173339843 1.419 1.881615173339843 1.269 1.881615173339843 1.1219999999999999 C 1.881615173339843 1.1039999999999999 1.878615173339843 1.0965 1.875615173339843 1.0785 L 1.931115173339843 1.0785 C 1.974615173339843 1.0785 2.0061151733398432 1.047 2.0061151733398432 1.014 C 2.0061151733398432 0.9824999999999999 1.988115173339843 0.9554999999999999 1.946115173339843 0.9554999999999999 C 1.884615173339843 0.9554999999999999 1.776615173339843 0.9315 1.5696151733398431 0.8504999999999999 L 1.541115173339843 0.975 C 1.685115173339843 1.0154999999999998 1.7691151733398431 1.0485 1.7691151733398431 1.101 C 1.7691151733398431 1.209 1.580115173339843 1.2974999999999999 1.349115173339843 1.2974999999999999 C 1.157115173339843 1.2974999999999999 0.995115173339843 1.2285 0.995115173339843 1.062 C 0.995115173339843 1.002 1.0116151733398429 0.9329999999999999 1.043115173339843 0.849 L 0.935115173339843 0.8069999999999999 C 0.891615173339843 0.9135 0.872115173339843 1.0005 0.872115173339843 1.0725 M 1.424115173339843 1.7025000000000001 C 1.4646151733398431 1.7025000000000001 1.497615173339843 1.6695 1.497615173339843 1.629 C 1.497615173339843 1.5884999999999998 1.4646151733398431 1.5539999999999998 1.424115173339843 1.5539999999999998 C 1.3821151733398431 1.5539999999999998 1.349115173339843 1.5884999999999998 1.349115173339843 1.629 C 1.349115173339843 1.6695 1.3821151733398431 1.7025000000000001 1.424115173339843 1.7025000000000001 M 1.218615173339843 1.7025000000000001 C 1.259115173339843 1.7025000000000001 1.292115173339843 1.6695 1.292115173339843 1.629 C 1.292115173339843 1.5884999999999998 1.259115173339843 1.5539999999999998 1.218615173339843 1.5539999999999998 C 1.176615173339843 1.5539999999999998 1.143615173339843 1.5884999999999998 1.143615173339843 1.629 C 1.143615173339843 1.6695 1.176615173339843 1.7025000000000001 1.218615173339843 1.7025000000000001 M 2.262649597167968 0.16499999999999992 C 2.303149597167968 0.16499999999999992 2.3361495971679678 0.1319999999999999 2.3361495971679678 0.09149999999999991 C 2.3361495971679678 0.050999999999999934 2.303149597167968 0.01649999999999996 2.262649597167968 0.01649999999999996 C 2.220649597167968 0.01649999999999996 2.187649597167968 0.050999999999999934 2.187649597167968 0.09149999999999991 C 2.187649597167968 0.1319999999999999 2.220649597167968 0.16499999999999992 2.262649597167968 0.16499999999999992 M 1.9281495971679679 1.0785 C 2.1006495971679677 1.0785 2.273149597167968 1.068 2.366149597167968 1.014 C 2.4846495971679676 0.9435 2.5311495971679676 0.8384999999999999 2.5311495971679676 0.6884999999999999 C 2.5311495971679676 0.49949999999999994 2.4516495971679677 0.3194999999999999 2.291149597167968 0.3194999999999999 C 2.138149597167968 0.3194999999999999 2.039149597167968 0.49349999999999994 2.039149597167968 0.6465 C 2.039149597167968 0.7575 2.1246495971679678 0.837 2.2776495971679678 0.837 C 2.318149597167968 0.837 2.360149597167968 0.8324999999999999 2.396149597167968 0.8205 C 2.376649597167968 0.8775 2.339149597167968 0.9089999999999999 2.2746495971679677 0.9315 C 2.2041495971679677 0.9554999999999999 2.0421495971679677 0.9554999999999999 1.9431495971679678 0.9554999999999999 M 2.1576495971679677 0.6164999999999999 C 2.1576495971679677 0.5355 2.208649597167968 0.4424999999999999 2.279149597167968 0.4424999999999999 C 2.363149597167968 0.4424999999999999 2.4141495971679676 0.5549999999999999 2.4141495971679676 0.6795 C 2.4141495971679676 0.6869999999999999 2.4141495971679676 0.6944999999999999 2.4141495971679676 0.7004999999999999 C 2.376649597167968 0.7124999999999999 2.331649597167968 0.7184999999999999 2.291149597167968 0.7184999999999999 C 2.1936495971679677 0.7184999999999999 2.1576495971679677 0.6795 2.1576495971679677 0.6164999999999999 M 2.5566378784179675 1.419 C 2.706637878417968 1.3815 2.9451378784179676 1.2375 2.987137878417968 1.0125 C 3.0186378784179677 1.0514999999999999 3.068137878417968 1.0785 3.1446378784179676 1.0785 C 3.188137878417968 1.0785 3.219637878417968 1.047 3.219637878417968 1.014 C 3.219637878417968 0.9824999999999999 3.2016378784179675 0.9554999999999999 3.1596378784179677 0.9554999999999999 C 3.081637878417968 0.9554999999999999 3.0396378784179676 0.9315 3.012637878417968 0.8444999999999999 C 2.9901378784179675 0.7709999999999999 2.951137878417968 0.6689999999999999 2.895637878417968 0.5624999999999999 L 2.786137878417968 0.6179999999999999 C 2.838637878417968 0.708 2.8896378784179677 0.813 2.8896378784179677 0.9105 C 2.8896378784179677 1.0485 2.8041378784179676 1.2075 2.5131378784179677 1.305 M 3.1416320190429676 1.0785 C 3.4806320190429676 1.0785 3.626132019042968 0.951 3.7776320190429677 0.879 C 3.8196320190429676 1.05 3.9366320190429676 1.0785 4.097132019042967 1.0785 C 4.140632019042967 1.0785 4.172132019042968 1.047 4.172132019042968 1.014 C 4.172132019042968 0.9824999999999999 4.154132019042968 0.9554999999999999 4.112132019042968 0.9554999999999999 C 3.9741320190429676 0.9554999999999999 3.9126320190429675 0.9344999999999999 3.875132019042968 0.8444999999999999 C 3.9036320190429676 0.8384999999999999 3.9321320190429674 0.834 3.9651320190429677 0.834 L 3.954632019042968 0.726 L 3.9231320190429675 0.726 C 3.767132019042968 0.726 3.6531320190429675 0.5429999999999999 3.3906320190429677 0.5429999999999999 C 3.3396320190429676 0.5429999999999999 3.2856320190429678 0.5519999999999999 3.2316320190429675 0.5684999999999999 L 3.2556320190429675 0.6824999999999999 C 3.3096320190429678 0.6704999999999999 3.3411320190429676 0.6659999999999999 3.3906320190429677 0.6659999999999999 C 3.5256320190429675 0.6659999999999999 3.6426320190429675 0.711 3.7206320190429674 0.78 C 3.5601320190429675 0.891 3.3621320190429675 0.9554999999999999 3.1551320190429677 0.9554999999999999 M 4.0941679077148425 1.0785 C 4.364167907714842 1.0785 4.401667907714843 0.963 4.392667907714842 0.75 L 4.362667907714843 0 L 4.241167907714843 0 L 4.269667907714843 0.7635 C 4.275667907714842 0.9149999999999999 4.277167907714842 0.9554999999999999 4.107667907714842 0.9554999999999999 M 4.619182556152342 1.071 L 4.7406825561523425 1.071 L 4.710682556152342 0 L 4.589182556152342 0" fill="#404040" fill-rule="nonzero"></path></g><g><path d=" M 0.195625 2.6731374999999993 C 0.343125 2.6731374999999993 0.385625 2.591262499999999 0.39687500000000003 2.5143874999999993 C 0.40875 2.524387499999999 0.42562500000000003 2.531262499999999 0.45 2.531262499999999 C 0.489375 2.531262499999999 0.5125 2.520012499999999 0.530625 2.4937624999999994 C 0.5425 2.5193874999999992 0.5675 2.531262499999999 0.613125 2.531262499999999 C 0.676875 2.531262499999999 0.724375 2.5012624999999993 0.724375 2.4162624999999993 C 0.724375 2.3787624999999992 0.7075 2.316887499999999 0.691875 2.276262499999999 L 0.64125 2.2950124999999995 C 0.659375 2.3425124999999993 0.676875 2.395012499999999 0.676875 2.426262499999999 C 0.676875 2.4768874999999992 0.651875 2.480012499999999 0.61375 2.480012499999999 C 0.564375 2.480012499999999 0.556875 2.4650124999999994 0.556875 2.4468874999999994 C 0.556875 2.4256374999999992 0.564375 2.3831374999999992 0.568125 2.3606374999999993 L 0.520625 2.3518874999999992 C 0.505625 2.4743874999999993 0.48562500000000003 2.480012499999999 0.453125 2.480012499999999 C 0.42125 2.480012499999999 0.401875 2.4737624999999994 0.388125 2.428137499999999 C 0.384375 2.415012499999999 0.380625 2.3981374999999994 0.3675 2.3506374999999995 L 0.316875 2.3643874999999994 C 0.33125 2.4137624999999994 0.345625 2.4568874999999992 0.345625 2.5118874999999994 C 0.345625 2.5650124999999995 0.31125 2.6218874999999993 0.1975 2.6218874999999993 C 0.12687500000000002 2.6218874999999993 0.07 2.588762499999999 0.07 2.524387499999999 C 0.07 2.499387499999999 0.076875 2.470637499999999 0.09 2.4356374999999995 L 0.045 2.4181374999999994 C 0.026875 2.4625124999999994 0.01875 2.4987624999999993 0.01875 2.528762499999999 C 0.01875 2.620012499999999 0.10125 2.6731374999999993 0.195625 2.6731374999999993 M 0.9390527343749999 2.531262499999999 C 0.9571777343749999 2.531262499999999 0.9703027343749999 2.5181374999999995 0.9703027343749999 2.504387499999999 C 0.9703027343749999 2.491262499999999 0.9628027343749999 2.480012499999999 0.9453027343749999 2.480012499999999 C 0.8734277343749999 2.480012499999999 0.8684277343749999 2.4650124999999994 0.8659277343749999 2.403762499999999 L 0.8534277343749999 2.0818874999999992 L 0.802177734375 2.0818874999999992 L 0.8146777343749999 2.423762499999999 C 0.817177734375 2.4987624999999993 0.838427734375 2.531262499999999 0.9390527343749999 2.531262499999999 M 1.038125 2.2868874999999993 C 1.055 2.2868874999999993 1.0687499999999999 2.2731374999999994 1.0687499999999999 2.256262499999999 C 1.0687499999999999 2.2393874999999994 1.055 2.225012499999999 1.038125 2.225012499999999 C 1.020625 2.225012499999999 1.006875 2.2393874999999994 1.006875 2.256262499999999 C 1.006875 2.2731374999999994 1.020625 2.2868874999999993 1.038125 2.2868874999999993 M 0.9406249999999999 2.531262499999999 C 0.995625 2.531262499999999 1.025 2.5237624999999992 1.049375 2.488762499999999 C 1.06125 2.5168874999999993 1.089375 2.531262499999999 1.155 2.531262499999999 C 1.173125 2.531262499999999 1.18625 2.5181374999999995 1.18625 2.504387499999999 C 1.18625 2.491262499999999 1.17875 2.480012499999999 1.16125 2.480012499999999 C 1.083125 2.480012499999999 1.07375 2.4612624999999992 1.07375 2.4362624999999993 C 1.07375 2.4162624999999993 1.081875 2.3831374999999992 1.086875 2.3606374999999993 L 1.038125 2.3512624999999994 C 1.016875 2.461887499999999 1.0174999999999998 2.480012499999999 0.9468749999999999 2.480012499999999 M 1.156573486328125 2.531262499999999 C 1.269073486328125 2.531262499999999 1.284698486328125 2.4831374999999993 1.2809484863281249 2.3943874999999992 L 1.268448486328125 2.0818874999999992 L 1.217823486328125 2.0818874999999992 L 1.2296984863281248 2.4000124999999994 C 1.232198486328125 2.4631374999999993 1.2328234863281249 2.480012499999999 1.162198486328125 2.480012499999999 M 1.37814208984375 2.5281374999999993 L 1.42876708984375 2.5281374999999993 L 1.41626708984375 2.0818874999999992 L 1.3656420898437498 2.0818874999999992 M 1.9548458862304687 2.2775124999999994 C 1.9717208862304687 2.2775124999999994 1.9854708862304686 2.2637624999999995 1.9854708862304686 2.2468874999999993 C 1.9854708862304686 2.230012499999999 1.9717208862304687 2.2156374999999993 1.9548458862304687 2.2156374999999993 C 1.9373458862304687 2.2156374999999993 1.9235958862304687 2.230012499999999 1.9235958862304687 2.2468874999999993 C 1.9235958862304687 2.2637624999999995 1.9373458862304687 2.2775124999999994 1.9548458862304687 2.2775124999999994 M 1.8692208862304687 2.2775124999999994 C 1.8860958862304686 2.2775124999999994 1.8998458862304686 2.2637624999999995 1.8998458862304686 2.2468874999999993 C 1.8998458862304686 2.230012499999999 1.8860958862304686 2.2156374999999993 1.8692208862304687 2.2156374999999993 C 1.8517208862304686 2.2156374999999993 1.8379708862304687 2.230012499999999 1.8379708862304687 2.2468874999999993 C 1.8379708862304687 2.2637624999999995 1.8517208862304686 2.2775124999999994 1.8692208862304687 2.2775124999999994 M 1.8498458862304685 2.5412624999999993 C 1.9785958862304687 2.5412624999999993 2.0942208862304685 2.515012499999999 2.1629708862304686 2.461887499999999 C 2.164220886230469 2.511262499999999 2.2160958862304687 2.531262499999999 2.289220886230469 2.531262499999999 C 2.3073458862304688 2.531262499999999 2.320470886230469 2.5181374999999995 2.320470886230469 2.504387499999999 C 2.320470886230469 2.491262499999999 2.3129708862304685 2.480012499999999 2.2954708862304685 2.480012499999999 C 2.2248458862304688 2.480012499999999 2.2085958862304684 2.4612624999999992 2.2085958862304684 2.4425124999999994 C 2.2085958862304684 2.4337624999999994 2.2104708862304685 2.423762499999999 2.217970886230469 2.4043874999999995 L 2.1785958862304686 2.381262499999999 C 2.1010958862304685 2.468762499999999 1.9673458862304687 2.4900124999999993 1.8660958862304686 2.4900124999999993 C 1.7173458862304687 2.4900124999999993 1.6760958862304687 2.4650124999999994 1.6760958862304687 2.4000124999999994 C 1.6760958862304687 2.3787624999999992 1.6842208862304686 2.3468874999999993 1.6892208862304687 2.328137499999999 L 1.6423458862304685 2.3162624999999992 C 1.6335958862304687 2.3475124999999992 1.6248458862304687 2.383762499999999 1.6248458862304687 2.4143874999999992 C 1.6248458862304687 2.5056374999999993 1.7010958862304686 2.5412624999999993 1.8498458862304685 2.5412624999999993 M 2.2907943725585938 2.531262499999999 C 2.4032943725585936 2.531262499999999 2.4189193725585936 2.4831374999999993 2.415169372558594 2.3943874999999992 L 2.4026693725585937 2.0818874999999992 L 2.3520443725585936 2.0818874999999992 L 2.363919372558594 2.4000124999999994 C 2.366419372558594 2.4631374999999993 2.3670443725585937 2.480012499999999 2.296419372558594 2.480012499999999 M 2.636737976074219 2.531262499999999 C 2.654862976074219 2.531262499999999 2.667987976074219 2.5181374999999995 2.667987976074219 2.504387499999999 C 2.667987976074219 2.491262499999999 2.6604879760742186 2.480012499999999 2.6429879760742185 2.480012499999999 C 2.5711129760742186 2.480012499999999 2.5661129760742187 2.4650124999999994 2.563612976074219 2.403762499999999 L 2.5511129760742186 2.0818874999999992 L 2.4998629760742186 2.0818874999999992 L 2.5123629760742188 2.423762499999999 C 2.5148629760742187 2.4987624999999993 2.5361129760742185 2.531262499999999 2.636737976074219 2.531262499999999 M 2.8214352416992186 2.1506374999999993 C 2.8383102416992188 2.1506374999999993 2.8520602416992187 2.1368874999999994 2.8520602416992187 2.120012499999999 C 2.8520602416992187 2.1031374999999994 2.8383102416992188 2.088762499999999 2.8214352416992186 2.088762499999999 C 2.8039352416992185 2.088762499999999 2.7901852416992186 2.1031374999999994 2.7901852416992186 2.120012499999999 C 2.7901852416992186 2.1368874999999994 2.8039352416992185 2.1506374999999993 2.8214352416992186 2.1506374999999993 M 2.7358102416992187 2.1506374999999993 C 2.7526852416992185 2.1506374999999993 2.7664352416992184 2.1368874999999994 2.7664352416992184 2.120012499999999 C 2.7664352416992184 2.1031374999999994 2.7526852416992185 2.088762499999999 2.7358102416992187 2.088762499999999 C 2.7183102416992186 2.088762499999999 2.7045602416992187 2.1031374999999994 2.7045602416992187 2.120012499999999 C 2.7045602416992187 2.1368874999999994 2.7183102416992186 2.1506374999999993 2.7358102416992187 2.1506374999999993 M 2.6383102416992186 2.531262499999999 C 2.7101852416992185 2.531262499999999 2.7820602416992184 2.526887499999999 2.8208102416992187 2.504387499999999 C 2.8701852416992186 2.475012499999999 2.8895602416992188 2.4312624999999994 2.8895602416992188 2.3687624999999994 C 2.8895602416992188 2.290012499999999 2.8564352416992187 2.2150124999999994 2.7895602416992187 2.2150124999999994 C 2.7258102416992185 2.2150124999999994 2.6845602416992187 2.287512499999999 2.6845602416992187 2.3512624999999994 C 2.6845602416992187 2.3975124999999995 2.7201852416992187 2.430637499999999 2.7839352416992185 2.430637499999999 C 2.8008102416992187 2.430637499999999 2.8183102416992187 2.428762499999999 2.8333102416992184 2.423762499999999 C 2.8251852416992187 2.4475124999999993 2.8095602416992187 2.4606374999999994 2.7826852416992187 2.4700124999999993 C 2.753310241699219 2.480012499999999 2.6858102416992184 2.480012499999999 2.6445602416992187 2.480012499999999 M 2.7339352416992186 2.338762499999999 C 2.7339352416992186 2.3050124999999992 2.7551852416992184 2.2662624999999994 2.784560241699219 2.2662624999999994 C 2.8195602416992185 2.2662624999999994 2.8408102416992187 2.3131374999999994 2.8408102416992187 2.3650124999999993 C 2.8408102416992187 2.368137499999999 2.8408102416992187 2.3712624999999994 2.8408102416992187 2.3737624999999993 C 2.8251852416992187 2.3787624999999992 2.8064352416992184 2.381262499999999 2.7895602416992187 2.381262499999999 C 2.7489352416992188 2.381262499999999 2.7339352416992186 2.3650124999999993 2.7339352416992186 2.338762499999999 M 3.1011361694335937 2.531262499999999 C 3.1192611694335937 2.531262499999999 3.1323861694335937 2.5181374999999995 3.1323861694335937 2.504387499999999 C 3.1323861694335937 2.491262499999999 3.1248861694335934 2.480012499999999 3.1073861694335934 2.480012499999999 C 3.0355111694335934 2.480012499999999 3.0305111694335936 2.4650124999999994 3.0280111694335936 2.403762499999999 L 3.0155111694335934 2.0818874999999992 L 2.9642611694335934 2.0818874999999992 L 2.9767611694335936 2.423762499999999 C 2.9792611694335935 2.4987624999999993 3.0005111694335933 2.531262499999999 3.1011361694335937 2.531262499999999 M 3.1027084350585934 2.531262499999999 C 3.1377084350585935 2.531262499999999 3.1627084350585934 2.5275124999999994 3.1889584350585936 2.4893874999999994 C 3.2445834350585936 2.524387499999999 3.2802084350585936 2.5281374999999993 3.304583435058593 2.5281374999999993 C 3.3483334350585934 2.5281374999999993 3.3933334350585933 2.5025124999999995 3.3933334350585933 2.4268874999999994 C 3.3933334350585933 2.370012499999999 3.3489584350585933 2.3043874999999994 3.2927084350585933 2.3043874999999994 C 3.2570834350585933 2.3043874999999994 3.222083435058593 2.321262499999999 3.1858334350585933 2.4006374999999993 C 3.1589584350585933 2.460012499999999 3.1433334350585933 2.480012499999999 3.1089584350585935 2.480012499999999 M 3.2195834350585932 2.4337624999999994 C 3.2477084350585934 2.370012499999999 3.2664584350585932 2.3556374999999994 3.288958435058593 2.3556374999999994 C 3.3189584350585934 2.3556374999999994 3.3483334350585934 2.3975124999999995 3.3483334350585934 2.4337624999999994 C 3.3483334350585934 2.459387499999999 3.3345834350585934 2.4768874999999992 3.2989584350585934 2.4768874999999992 C 3.2789584350585934 2.4768874999999992 3.2489584350585936 2.470637499999999 3.2127084350585933 2.4493874999999994 C 3.2145834350585933 2.444387499999999 3.2170834350585933 2.439387499999999 3.2195834350585932 2.4337624999999994 M 3.603817443847656 2.671887499999999 C 3.741317443847656 2.656262499999999 3.812567443847656 2.5881374999999993 3.812567443847656 2.4712624999999995 C 3.812567443847656 2.392512499999999 3.779442443847656 2.3175124999999994 3.712567443847656 2.3175124999999994 C 3.6488174438476557 2.3175124999999994 3.607567443847656 2.390012499999999 3.607567443847656 2.4537624999999994 C 3.607567443847656 2.5075124999999994 3.643192443847656 2.533137499999999 3.7069424438476557 2.533137499999999 C 3.723192443847656 2.533137499999999 3.7400674438476558 2.531262499999999 3.755067443847656 2.526887499999999 C 3.732567443847656 2.5900124999999994 3.671942443847656 2.6100124999999994 3.592567443847656 2.620637499999999 M 3.656942443847656 2.4412624999999992 C 3.656942443847656 2.4075124999999993 3.678192443847656 2.3687624999999994 3.707567443847656 2.3687624999999994 C 3.7425674438476557 2.3687624999999994 3.763817443847656 2.4156374999999994 3.763817443847656 2.4675124999999993 C 3.763817443847656 2.470637499999999 3.763817443847656 2.4737624999999994 3.763817443847656 2.4762624999999994 C 3.748192443847656 2.4812624999999993 3.729442443847656 2.483762499999999 3.712567443847656 2.483762499999999 C 3.671942443847656 2.483762499999999 3.656942443847656 2.4675124999999993 3.656942443847656 2.4412624999999992 M 4.179924621582031 2.133762499999999 C 4.196799621582031 2.133762499999999 4.210549621582031 2.120012499999999 4.210549621582031 2.1031374999999994 C 4.210549621582031 2.0862624999999992 4.196799621582031 2.0718874999999994 4.179924621582031 2.0718874999999994 C 4.162424621582031 2.0718874999999994 4.148674621582031 2.0862624999999992 4.148674621582031 2.1031374999999994 C 4.148674621582031 2.120012499999999 4.162424621582031 2.133762499999999 4.179924621582031 2.133762499999999 M 4.094299621582031 2.133762499999999 C 4.111174621582031 2.133762499999999 4.124924621582031 2.120012499999999 4.124924621582031 2.1031374999999994 C 4.124924621582031 2.0862624999999992 4.111174621582031 2.0718874999999994 4.094299621582031 2.0718874999999994 C 4.076799621582031 2.0718874999999994 4.063049621582031 2.0862624999999992 4.063049621582031 2.1031374999999994 C 4.063049621582031 2.120012499999999 4.076799621582031 2.133762499999999 4.094299621582031 2.133762499999999 M 4.287424621582031 2.531262499999999 C 4.305549621582031 2.531262499999999 4.318674621582031 2.5181374999999995 4.318674621582031 2.504387499999999 C 4.318674621582031 2.491262499999999 4.311174621582031 2.480012499999999 4.2936746215820305 2.480012499999999 C 4.248674621582031 2.480012499999999 4.223049621582031 2.470637499999999 4.219924621582031 2.4118874999999993 L 4.209924621582031 2.205637499999999 L 4.159299621582031 2.205637499999999 L 4.161174621582031 2.2531374999999993 C 4.073049621582031 2.267512499999999 4.002424621582031 2.3218874999999994 4.002424621582031 2.3887624999999995 C 4.002424621582031 2.4568874999999992 4.088049621582031 2.4881374999999992 4.176799621582031 2.4668874999999995 C 4.192424621582031 2.515637499999999 4.233049621582031 2.531262499999999 4.287424621582031 2.531262499999999 M 4.051799621582031 2.3806374999999993 C 4.051799621582031 2.350012499999999 4.091799621582031 2.3131374999999994 4.163674621582031 2.3050124999999992 L 4.169299621582031 2.419387499999999 C 4.122424621582031 2.428137499999999 4.051799621582031 2.4200124999999995 4.051799621582031 2.3806374999999993 M 4.28900146484375 2.531262499999999 C 4.32400146484375 2.531262499999999 4.34900146484375 2.5275124999999994 4.37525146484375 2.4893874999999994 C 4.43087646484375 2.524387499999999 4.46650146484375 2.5281374999999993 4.49087646484375 2.5281374999999993 C 4.53462646484375 2.5281374999999993 4.57962646484375 2.5025124999999995 4.57962646484375 2.4268874999999994 C 4.57962646484375 2.370012499999999 4.53525146484375 2.3043874999999994 4.47900146484375 2.3043874999999994 C 4.44337646484375 2.3043874999999994 4.40837646484375 2.321262499999999 4.37212646484375 2.4006374999999993 C 4.34525146484375 2.460012499999999 4.32962646484375 2.480012499999999 4.29525146484375 2.480012499999999 M 4.40587646484375 2.4337624999999994 C 4.43400146484375 2.370012499999999 4.45275146484375 2.3556374999999994 4.47525146484375 2.3556374999999994 C 4.50525146484375 2.3556374999999994 4.53462646484375 2.3975124999999995 4.53462646484375 2.4337624999999994 C 4.53462646484375 2.459387499999999 4.52087646484375 2.4768874999999992 4.48525146484375 2.4768874999999992 C 4.46525146484375 2.4768874999999992 4.43525146484375 2.470637499999999 4.39900146484375 2.4493874999999994 C 4.40087646484375 2.444387499999999 4.40337646484375 2.439387499999999 4.40587646484375 2.4337624999999994 M 4.753079223632813 2.480012499999999 C 4.713079223632813 2.480012499999999 4.682454223632813 2.468137499999999 4.665579223632813 2.4568874999999992 L 4.6405792236328125 2.500012499999999 C 4.666204223632813 2.520012499999999 4.707454223632813 2.5318874999999994 4.753079223632813 2.5318874999999994 C 4.817454223632813 2.5318874999999994 4.851829223632813 2.5118874999999994 4.8680792236328125 2.484387499999999 C 4.886204223632813 2.5187624999999993 4.919329223632813 2.531262499999999 4.951204223632812 2.531262499999999 C 4.969329223632813 2.531262499999999 4.982454223632812 2.5181374999999995 4.982454223632812 2.504387499999999 C 4.982454223632812 2.491262499999999 4.974329223632813 2.480012499999999 4.956829223632813 2.480012499999999 C 4.936829223632813 2.480012499999999 4.909329223632813 2.475012499999999 4.892454223632813 2.419387499999999 C 4.877454223632813 2.370012499999999 4.847454223632813 2.3093874999999993 4.799329223632813 2.2350124999999994 L 4.756204223632813 2.263137499999999 C 4.800579223632813 2.3293874999999993 4.838079223632813 2.3943874999999992 4.838079223632813 2.4268874999999994 C 4.838079223632813 2.460012499999999 4.814954223632813 2.480012499999999 4.753079223632813 2.480012499999999 M 5.050880737304688 2.2437624999999994 C 5.067755737304688 2.2437624999999994 5.081505737304688 2.230012499999999 5.081505737304688 2.2131374999999993 C 5.081505737304688 2.196262499999999 5.067755737304688 2.1818874999999993 5.050880737304688 2.1818874999999993 C 5.033380737304689 2.1818874999999993 5.019630737304688 2.196262499999999 5.019630737304688 2.2131374999999993 C 5.019630737304688 2.230012499999999 5.033380737304689 2.2437624999999994 5.050880737304688 2.2437624999999994 M 4.952755737304688 2.531262499999999 C 5.0940057373046885 2.531262499999999 5.1546307373046885 2.4781374999999994 5.217755737304688 2.448137499999999 C 5.235255737304688 2.5193874999999992 5.284005737304688 2.531262499999999 5.3508807373046885 2.531262499999999 C 5.369005737304688 2.531262499999999 5.3821307373046885 2.5181374999999995 5.3821307373046885 2.504387499999999 C 5.3821307373046885 2.491262499999999 5.374630737304688 2.480012499999999 5.357130737304688 2.480012499999999 C 5.299630737304688 2.480012499999999 5.274005737304688 2.4712624999999995 5.258380737304688 2.4337624999999994 C 5.270255737304688 2.4312624999999994 5.282130737304688 2.4293874999999994 5.295880737304688 2.4293874999999994 L 5.291505737304688 2.3843874999999994 L 5.278380737304688 2.3843874999999994 C 5.213380737304688 2.3843874999999994 5.165880737304688 2.308137499999999 5.056505737304688 2.308137499999999 C 5.035255737304688 2.308137499999999 5.012755737304688 2.311887499999999 4.990255737304688 2.318762499999999 L 5.0002557373046885 2.3662624999999995 C 5.0227557373046885 2.361262499999999 5.035880737304688 2.359387499999999 5.056505737304688 2.359387499999999 C 5.112755737304688 2.359387499999999 5.161505737304688 2.3781374999999993 5.194005737304688 2.4068874999999994 C 5.127130737304689 2.453137499999999 5.044630737304688 2.480012499999999 4.958380737304688 2.480012499999999 M 5.35245819091797 2.531262499999999 C 5.46495819091797 2.531262499999999 5.48058319091797 2.4831374999999993 5.4768331909179695 2.3943874999999992 L 5.46433319091797 2.0818874999999992 L 5.41370819091797 2.0818874999999992 L 5.42558319091797 2.4000124999999994 C 5.428083190917969 2.4631374999999993 5.42870819091797 2.480012499999999 5.35808319091797 2.480012499999999 M 5.574026794433595 2.5281374999999993 L 5.624651794433595 2.5281374999999993 L 5.612151794433595 2.0818874999999992 L 5.561526794433595 2.0818874999999992" fill="#4e888f" fill-rule="nonzero"></path></g><g clip-path="url(&quot;#SvgjsClipPath1001&quot;)"><g clip-path="url(&quot;#SvgjsClipPath100069df8171-0860-4ad0-9bf6-311dab91cf56&quot;)"><path d=" M 1.23828189233325 -3.723655169305235 L 1.23828189233325 -0.9194069671428857 L 2.832630920410156 -0.24999999999999956 L 4.426979948487062 -0.9194069671428857 L 4.426979948487062 -3.723655169305235 Z" fill="#404040" transform="matrix(1,0,0,1,0,0)" fill-rule="nonzero"></path></g><g clip-path="url(&quot;#SvgjsClipPath100069df8171-0860-4ad0-9bf6-311dab91cf56&quot;)"><path d=" M 1.332831180584357 -0.9677991392742133 L 1.332831180584357 -3.6335706917379307 L 4.332425797106559 -3.6335706917379307 L 4.332425797106559 -0.9677991392742133 L 2.832628488845458 -0.3380804166002864 Z" fill="#bab9b4" transform="matrix(1,0,0,1,0,0)" fill-rule="nonzero"></path></g><g clip-path="url(&quot;#SvgjsClipPath100069df8171-0860-4ad0-9bf6-311dab91cf56&quot;)"><path d=" M 2.832629570403515 -0.42553139794679806 L 4.251791123029378 -1.0213886525647942 L 4.251791123029378 -3.5529309124954196 L 1.4134680177776526 -3.5529309124954196 L 1.4134680177776526 -1.0213886525647942 Z" fill="#4e888f" transform="matrix(1,0,0,1,0,0)" fill-rule="nonzero"></path></g><g clip-path="url(&quot;#ab59b0fa7-825c-4092-b244-178f91f20e8d69df8171-0860-4ad0-9bf6-311dab91cf56&quot;)"><path d=" M 3.68182488797481 -2.6386068056250465 L 3.48717213747365 -2.2071265420141426 C 3.6205476898729643 -2.225716733427137 3.8082744735388583 -2.244114833310032 4.056040532112621 -2.2528443261779016 C 3.9457479785803025 -2.3734351200739052 3.8202375071634087 -2.5029901853745677 3.68182488797481 -2.6386068056250465 M 3.3396885293636704 -2.2831521009269857 L 3.5537638679082573 -2.7622817357543195 C 3.297054881433181 -3.006739551309696 3.002621252796832 -3.2672156661250638 2.683023633717406 -3.527937231228892 L 2.6523850346664832 -3.5529304736452145 L 4.2517924730360175 -3.5529304736452145 L 4.2517924730360175 -1.0213882137145887 L 2.832630920410156 -0.4255202873449204 L 1.4134693677842938 -1.021388213714589 L 1.4134693677842938 -2.4281705344006843 C 1.5972155880764518 -2.9627505909168357 2.0565064365451424 -3.209075963014849 2.3578126732583957 -3.158193051041739 C 2.371931400720733 -3.184669666940499 2.391940935106132 -3.216108647366837 2.425685013893669 -3.248454726685314 C 2.53893364263919 -3.4082642079766994 2.7595294214554986 -3.400623233779395 2.912167485623157 -3.3132856180940062 C 3.062276344644501 -3.2273993606360385 3.1652694200330256 -3.0543142202644207 3.0593095976796256 -2.858007348254068 C 3.1665607019853637 -2.7751518682710086 3.2390752545980486 -2.5908400451402227 3.295133966132182 -2.356306958640004 C 3.305314817227473 -2.3493596483013937 3.312699669384644 -2.3398724610647967 3.317619346905534 -2.33231686088087 C 3.3267650380886207 -2.3183155226869268 3.3340538444807417 -2.3008778804545313 3.33968852936367 -2.283152100926986" fill="#bab9b4" transform="matrix(1,0,0,1,0,0)" fill-rule="nonzero"></path></g><g clip-path="url(&quot;#ab59b0fa7-825c-4092-b244-178f91f20e8d69df8171-0860-4ad0-9bf6-311dab91cf56&quot;)"><path d=" M 4.126815589202735 -2.222760658213934 C 3.7868776114360716 -2.6015758273224687 3.2870020913579565 -3.0768422880444612 2.703406679411332 -3.5529411453968867 L 4.2517924730360175 -3.5529411453968867 L 4.2517924730360175 -1.0213882137145887 L 2.8326202486584835 -0.42553095909659255 L 1.4134693677842938 -1.021388213714589 L 1.4134693677842938 -2.3209194300949463 C 1.5791056254887073 -2.9222726368241325 2.079397343882039 -3.1905604738635596 2.375527781034269 -3.121781034336149 C 2.389913302288412 -3.1512990994614896 2.4090157377816723 -3.188522169294167 2.450230042739758 -3.227303314870988 C 2.6481910362593037 -3.5131995421695668 3.2526924097317926 -3.222426324356787 3.016238407930576 -2.848296054232354 C 3.1271712665632263 -2.7834544910719896 3.205811404635762 -2.5968482413316787 3.2673980835361016 -2.33342672305478 C 3.30505869518734 -2.3292433963992725 3.334363325279236 -2.199517583071855 3.3208315441588705 -2.146073450697414 C 3.4435780318926614 -2.172069837770924 3.703883398681273 -2.211555318958111 4.126815589202735 -2.222760658213934" fill="#404040" transform="matrix(1,0,0,1,0,0)" fill-rule="nonzero"></path></g><g clip-path="url(&quot;#SvgjsClipPath100069df8171-0860-4ad0-9bf6-311dab91cf56&quot;)"><path d=" M 3.6064962455186254 -2.801213328033746 L 3.3098002055277673 -2.1371849237336553 L 3.4181078132490543 -2.1324786812462095 L 3.7006851257775746 -2.7588358021433894 Z" fill="#404040" transform="matrix(1,0,0,1,0,0)" fill-rule="nonzero"></path></g><g clip-path="url(&quot;#bb59b0fa7-825c-4092-b244-178f91f20e8d69df8171-0860-4ad0-9bf6-311dab91cf56&quot;)"><path d=" M 2.9848421145109256 -2.881858713241463 C 3.143499046621712 -3.2578245246535165 2.639792367693272 -3.418359685058612 2.4866527311970197 -3.2020326069111884 C 2.653068026773505 -3.0195669968196954 2.819131154544807 -2.9128388083458963 2.9848421145109256 -2.881858713241463" fill="#bab9b4" transform="matrix(1,0,0,1,0,0)" fill-rule="nonzero"></path></g><g clip-path="url(&quot;#bb59b0fa7-825c-4092-b244-178f91f20e8d69df8171-0860-4ad0-9bf6-311dab91cf56&quot;)"><path d=" M 2.9758031408445613 -2.8449771394622956 C 2.8840901069735656 -2.858060707012428 2.7811397185917297 -2.9048029793367203 2.6314897448922907 -3.0019906218155614 C 2.633101179394795 -2.8814318431745742 2.6786162002767817 -2.6828732315613846 2.827177655305655 -2.678006912798856 C 2.9711182418604603 -2.6732899985597376 2.9515249057902775 -2.649833488384214 2.997167987692331 -2.6160253790866443 C 3.0007536962541947 -2.646215764567334 2.996815819887148 -2.780135576301931 2.9758031408445613 -2.8449771394622956" fill="#bab9b4" transform="matrix(1,0,0,1,0,0)" fill-rule="nonzero"></path></g><g clip-path="url(&quot;#bb59b0fa7-825c-4092-b244-178f91f20e8d69df8171-0860-4ad0-9bf6-311dab91cf56&quot;)"><path d=" M 2.8289384943315703 -2.6537820365029328 L 2.8224393975631927 -2.5563062567289423 C 2.8183094296660465 -2.535635073739866 2.781299794866813 -2.5451756197348243 2.7657297091770543 -2.5639899179329353 L 2.7227012064346927 -2.5216657508009397 C 2.7227012064346927 -2.5216657508009397 2.6554371556447363 -2.5441938185809807 2.6447974192275403 -2.550522167322603 C 2.656024101986708 -2.527492527213968 2.6787869483035376 -2.514665081703968 2.7131073016813736 -2.5120611742959484 C 2.716447559954776 -2.482308330633819 2.6910381192232378 -2.46316320813387 2.631351012120552 -2.5031929486563396 C 2.6358224760712092 -2.490578938179784 2.648404471292748 -2.472479647343711 2.670110814194029 -2.46316320813387 C 2.653537583847082 -2.3749825240663758 2.5637668087804286 -2.388140793878214 2.464828999027345 -2.5615887738066876 C 2.4307327524346256 -2.62796706920785 2.417531795616098 -2.7177271725228316 2.425226128571764 -2.830847740248286 C 2.3192129474600027 -2.8683909626311306 2.5213039088766944 -3.2082649098877605 2.5083590740983004 -2.9434453921418022 L 2.540054176564772 -2.9987890963138977 C 2.5521986299677506 -3.0184998216524743 2.590563577229355 -3.039544515950078 2.60013613847933 -2.931386312752202 C 2.65082695892234 -2.7577569130453012 2.700760084996624 -2.708538794333056 2.722114260092721 -2.691346602389122 L 2.784629381388543 -2.663824154826485 L 2.7864008921661303 -2.619515041883458 L 2.7988121393609138 -2.6602811332713103 Z" fill="#bab9b4" transform="matrix(1,0,0,1,0,0)" fill-rule="nonzero"></path></g><g clip-path="url(&quot;#bb59b0fa7-825c-4092-b244-178f91f20e8d69df8171-0860-4ad0-9bf6-311dab91cf56&quot;)"><path d=" M 2.364610579073595 -2.9828348275639396 L 2.309192172639795 -2.8897664812305726 C 2.261734892953465 -2.757116607944969 2.271371484713473 -2.648264740888399 2.338091276168147 -2.563232223564208 L 2.424863289014908 -2.607114466440347 C 2.407148181239035 -2.6886359774643798 2.400051466377014 -2.722305353990211 2.40466166309941 -2.800571980754219 C 2.355753025185659 -2.853461182041705 2.3532344917910164 -2.9019002628818784 2.364610579073595 -2.9828348275639396" fill="#bab9b4" transform="matrix(1,0,0,1,0,0)" fill-rule="nonzero"></path></g><g clip-path="url(&quot;#bb59b0fa7-825c-4092-b244-178f91f20e8d69df8171-0860-4ad0-9bf6-311dab91cf56&quot;)"><path d=" M 2.3304716454741867 -3.0793181344324148 C 1.9549433758806938 -3.081537858780235 1.561497235229556 -2.8461190168912225 1.6451744400913757 -2.331367074982043 C 1.6355378483313676 -2.0818188338790207 1.6477783474993957 -1.9203125440717537 1.6819172810988041 -1.8468482055602415 C 1.6565932143806434 -1.6969314380689973 1.6776165651749024 -1.601899489427943 1.781996968280815 -1.5722960502892254 C 1.8585134277705802 -1.7742055919274895 1.9868732568839542 -1.8713718909029862 2.1670871273726102 -1.863784275464043 C 2.1924432093457877 -1.9153928665508637 2.182273030002169 -1.9563723929721601 2.136544574086738 -1.9867228547279332 C 2.0984997793752993 -2.0163689808733403 2.0161351999691615 -2.0056545421944385 1.8894615076199968 -1.9546115539462452 C 1.9519446136608023 -2.020893803582358 2.027297852218296 -2.0524821885321076 2.1155212232924785 -2.049398052298838 C 2.0918406063318384 -2.080580910685044 2.0104044693211836 -2.072256944380718 1.8712234840121853 -2.024415481634189 C 2.036059360341183 -2.1238335202125223 2.115649284312545 -2.214522065922986 2.109971912422928 -2.296470447013907 C 2.0606577479456334 -2.2363778133476773 1.9890076072183969 -2.200563414735732 1.8950214902412197 -2.188995235923053 C 2.0074910811146696 -2.2694068847731756 2.05268594944649 -2.291646815258067 2.0881268367499084 -2.3589962400614013 C 2.128892928137761 -2.4564720198353918 2.1347517198058057 -2.5302351673937262 2.0861739061938938 -2.702573285148289 C 2.1573651615992246 -2.597552576942044 2.1894978058842574 -2.4217247963906674 2.1825398237939746 -2.1751112869975042 C 2.232782430666752 -2.2964917905172513 2.233177285478624 -2.398321644973505 2.231320400687659 -2.4620106589532704 C 2.1210705341620293 -2.809418862890483 2.205601479157626 -2.9655786051099717 2.3304716454741867 -3.0793181344324148" fill="#bab9b4" transform="matrix(1,0,0,1,0,0)" fill-rule="nonzero"></path></g><g clip-path="url(&quot;#bb59b0fa7-825c-4092-b244-178f91f20e8d69df8171-0860-4ad0-9bf6-311dab91cf56&quot;)"><path d=" M 2.943222282989296 -1.9471519995273687 L 2.742689397316747 -1.9629355202505712 C 2.667656311309419 -1.9660943587455464 2.6215009853270996 -1.8633147183904657 2.5583348871792726 -1.820286215648104 C 2.48236268702479 -1.8039584355896185 2.353608003099544 -1.8104788758613406 2.1720815071552058 -1.8398475364632698 C 1.9792002674316334 -1.8078322814466319 1.8601462057764282 -1.7107193412294963 1.8148873069345746 -1.5485087158118631 C 1.9452961123690138 -1.4993973146163402 2.0998230765826538 -1.5195135665184614 2.4452890217155234 -1.6031160691185757 C 2.671338065636333 -1.56059981045648 2.796464353993027 -1.623851282617685 2.796464353993027 -1.623851282617685 L 2.9204167496657774 -1.6264231747706877 C 2.94092785637977 -1.6286428991185082 2.9543422482317414 -1.687092083027217 2.9303948374792963 -1.6909766006359028 L 2.8206251997789167 -1.704988610581518 C 2.81017755489182 -1.7077205790096044 2.811426149837469 -1.714230347529654 2.8206251997789167 -1.71753859054804 L 2.9348342861749366 -1.7154896142269753 C 2.9587816969273817 -1.7177093385747955 2.9706273412835382 -1.7728502794651186 2.939263063118905 -1.7783675750796524 L 2.8215963291810877 -1.7909602420528636 C 2.8141687900172276 -1.7938843020110498 2.8138486374670615 -1.800073917980933 2.822556786831587 -1.802581779623903 L 2.952944248762682 -1.7948661031648934 C 2.978524437520975 -1.8027631994023308 2.9872005716304844 -1.854649256032629 2.949539959979246 -1.8585871323996754 L 2.814798423365888 -1.8702193417223871 C 2.8043614502304646 -1.8702300134740593 2.801992321359233 -1.8828546957022871 2.814798423365888 -1.8837297793394085 L 2.940415612299504 -1.8808377346362388 C 2.9730071419064417 -1.8836337335743587 2.9785351092726478 -1.9394576665717032 2.943222282989296 -1.9471519995273687" fill="#bab9b4" transform="matrix(1,0,0,1,0,0)" fill-rule="nonzero"></path></g><g clip-path="url(&quot;#bb59b0fa7-825c-4092-b244-178f91f20e8d69df8171-0860-4ad0-9bf6-311dab91cf56&quot;)"><path d=" M 2.8467603196241655 -2.0654376950621742 L 2.8530139661040823 -1.989305418632609 L 2.7669036018609976 -1.9864987479428167 L 2.763061771259001 -2.044713153314737 C 2.6758842318486957 -2.0798125445646445 2.646857067300277 -2.147844961475001 2.6960645142608497 -2.2548612872439495 L 2.7472035482740935 -2.1660402980761235 C 2.7820788327388843 -2.1497231897693103 2.8189177195113624 -2.1734358219849668 2.810401661676937 -2.2206369796311636 L 2.7933055154980524 -2.330214525801444 C 2.8914109286207035 -2.307248916202842 2.9368085602342964 -2.189101953439775 2.8467603196241655 -2.0654376950621742" fill="#bab9b4" transform="matrix(1,0,0,1,0,0)" fill-rule="nonzero"></path></g><g clip-path="url(&quot;#bb59b0fa7-825c-4092-b244-178f91f20e8d69df8171-0860-4ad0-9bf6-311dab91cf56&quot;)"><path d=" M 2.811468836844158 -1.309589539374365 L 2.793956492350057 -1.5756789955693167 L 2.8886789601926166 -1.5552959498753904 L 2.9094995477051038 -1.3019165499220442 C 2.973017813658114 -1.2475012881454317 3.00241848951506 -1.1894042720419056 2.9977015752759417 -1.1276361733631384 C 2.9283138459032148 -1.2148563997801327 2.846536212839049 -1.2449827547507892 2.7523580043317715 -1.2179938947717632 C 2.7551006445115305 -1.2685246389396907 2.774811369850107 -1.2990671922255634 2.811468836844158 -1.309589539374365" fill="#bab9b4" transform="matrix(1,0,0,1,0,0)" fill-rule="nonzero"></path></g><g clip-path="url(&quot;#bb59b0fa7-825c-4092-b244-178f91f20e8d69df8171-0860-4ad0-9bf6-311dab91cf56&quot;)"><path d=" M 3.609705190173996 -1.6394747270658043 C 3.541427322975179 -1.6409687722999142 3.516316691290463 -1.6040338397623857 3.534351951616502 -1.5286806012048921 L 3.6917496170299673 -1.437714589950951 C 3.7177033170967886 -1.4168406436801027 3.74086101822549 -1.3832566411676495 3.7405835526820126 -1.3489683030448298 L 3.7450443448809976 -1.1938010337308569 C 3.790271228467835 -1.1273693795713329 3.8397561409718857 -1.0993667031834469 3.8935097541448207 -1.1097823328155267 L 3.8823471018956863 -1.3712829357914265 C 3.880031331782816 -1.42845150949947 3.8624015980203206 -1.4968040789599928 3.8066843825396983 -1.5288620209833197 Z" fill="#bab9b4" transform="matrix(1,0,0,1,0,0)" fill-rule="nonzero"></path></g><g clip-path="url(&quot;#bb59b0fa7-825c-4092-b244-178f91f20e8d69df8171-0860-4ad0-9bf6-311dab91cf56&quot;)"><path d=" M 3.7887878549853973 -2.119703552315376 C 4.007270626970608 -2.119703552315376 4.18437901772265 -2.066376809209329 4.18437901772265 -2.000606803653482 C 4.18437901772265 -1.9348367980976353 4.007270626970608 -1.8815100549915886 3.7887878549853973 -1.8815100549915886 C 3.5703050830001866 -1.8815100549915886 3.3931966922481447 -1.9348367980976353 3.3931966922481447 -2.000606803653482 C 3.3931966922481447 -2.066376809209329 3.5703050830001866 -2.119703552315376 3.7887878549853973 -2.119703552315376" fill="#bab9b4" transform="matrix(1,0,0,1,0,0)" fill-rule="nonzero"></path></g><g clip-path="url(&quot;#bb59b0fa7-825c-4092-b244-178f91f20e8d69df8171-0860-4ad0-9bf6-311dab91cf56&quot;)"><path d=" M 3.3931966922481447 -1.7867128848873228 C 3.3931966922481447 -1.79210211948179 3.3943919284354327 -1.7974059800628799 3.396686355044958 -1.8026031231272475 C 3.4224906505883688 -1.7443353589969661 3.5882122823061597 -1.6993966127052786 3.78879852673707 -1.6993966127052786 C 3.9893847711679795 -1.6993966127052786 4.155085059382426 -1.7443353589969661 4.180889354925837 -1.8026031231272475 C 4.183194453287035 -1.7974059800628799 4.184389689474322 -1.79210211948179 4.184389689474322 -1.7867128848873228 C 4.184389689474322 -1.720932207579804 4.007281298722281 -1.6676054644737568 3.78879852673707 -1.6676054644737568 C 3.5703050830001866 -1.667616136225429 3.3931966922481447 -1.720932207579804 3.3931966922481447 -1.7867128848873228" fill="#bab9b4" transform="matrix(1,0,0,1,0,0)" fill-rule="nonzero"></path></g><g clip-path="url(&quot;#bb59b0fa7-825c-4092-b244-178f91f20e8d69df8171-0860-4ad0-9bf6-311dab91cf56&quot;)"><path d=" M 3.3931966922481447 -1.8535287221070467 L 3.3931966922481447 -1.9653473361284914 C 3.3931966922481447 -1.8995773305726444 3.5703050830001866 -1.8462505874665975 3.78879852673707 -1.8462505874665975 C 4.007270626970608 -1.8462505874665975 4.184389689474322 -1.899566658820972 4.184389689474322 -1.9653473361284914 L 4.184389689474322 -1.8535287221070467 C 4.184389689474322 -1.7877587165512 4.007281298722281 -1.7344319734451528 3.78879852673707 -1.7344319734451528 C 3.5703050830001866 -1.7344319734451528 3.3931966922481447 -1.7877587165512 3.3931966922481447 -1.8535287221070467" fill="#bab9b4" transform="matrix(1,0,0,1,0,0)" fill-rule="nonzero"></path></g><g clip-path="url(&quot;#SvgjsClipPath100069df8171-0860-4ad0-9bf6-311dab91cf56&quot;)"><path d=" M 3.4141560125323704 -1.9358933015131843 L 3.4316256700197827 -1.9358933015131843 L 3.4316256700197827 -1.7976407585996685 L 3.4141560125323704 -1.7976407585996685 Z" fill="#404040" transform="matrix(1,0,0,1,0,0)" fill-rule="nonzero"></path></g><g clip-path="url(&quot;#SvgjsClipPath100069df8171-0860-4ad0-9bf6-311dab91cf56&quot;)"><path d=" M 3.4490528315520184 -1.7805004158110092 L 3.4490528315520184 -1.9187529587245247 L 3.46652248903943 -1.9187529587245247 L 3.46652248903943 -1.7805004158110092 Z" fill="#404040" transform="matrix(1,0,0,1,0,0)" fill-rule="nonzero"></path></g><g clip-path="url(&quot;#SvgjsClipPath100069df8171-0860-4ad0-9bf6-311dab91cf56&quot;)"><path d=" M 3.4839735582632327 -1.7610510997651114 L 3.4839735582632327 -1.899303642678627 L 3.501443215750645 -1.899303642678627 L 3.501443215750645 -1.7610510997651114 Z" fill="#404040" transform="matrix(1,0,0,1,0,0)" fill-rule="nonzero"></path></g><g clip-path="url(&quot;#SvgjsClipPath100069df8171-0860-4ad0-9bf6-311dab91cf56&quot;)"><path d=" M 3.5188702734731567 -1.7492614526311163 L 3.5188702734731567 -1.8875139955446318 L 3.536350602712241 -1.8875139955446318 L 3.536350602712241 -1.7492614526311163 Z" fill="#404040" transform="matrix(1,0,0,1,0,0)" fill-rule="nonzero"></path></g><g clip-path="url(&quot;#SvgjsClipPath100069df8171-0860-4ad0-9bf6-311dab91cf56&quot;)"><path d=" M 3.5537669886830803 -1.7438908801756443 L 3.5537669886830803 -1.882154094840832 L 3.571247317922165 -1.882154094840832 L 3.571247317922165 -1.7438908801756443 Z" fill="#404040" transform="matrix(1,0,0,1,0,0)" fill-rule="nonzero"></path></g><g clip-path="url(&quot;#SvgjsClipPath100069df8171-0860-4ad0-9bf6-311dab91cf56&quot;)"><path d=" M 3.588687715394295 -1.7340941876488218 L 3.588687715394295 -1.8723574023140095 L 3.606157372881707 -1.8723574023140095 L 3.606157372881707 -1.7340941876488218 Z" fill="#404040" transform="matrix(1,0,0,1,0,0)" fill-rule="nonzero"></path></g><g clip-path="url(&quot;#SvgjsClipPath100069df8171-0860-4ad0-9bf6-311dab91cf56&quot;)"><path d=" M 3.623584430604218 -1.7287396228608771 L 3.623584430604218 -1.8669921657743926 L 3.6410540880916304 -1.8669921657743926 L 3.6410540880916304 -1.7287396228608771 Z" fill="#404040" transform="matrix(1,0,0,1,0,0)" fill-rule="nonzero"></path></g><g clip-path="url(&quot;#SvgjsClipPath100069df8171-0860-4ad0-9bf6-311dab91cf56&quot;)"><path d=" M 3.6584971534816697 -1.7287396228608771 L 3.6584971534816697 -1.8669921657743926 L 3.6759668109690815 -1.8669921657743926 L 3.6759668109690815 -1.7287396228608771 Z" fill="#404040" transform="matrix(1,0,0,1,0,0)" fill-rule="nonzero"></path></g><g clip-path="url(&quot;#SvgjsClipPath100069df8171-0860-4ad0-9bf6-311dab91cf56&quot;)"><path d=" M 3.6933778610240657 -1.7212320267904855 L 3.6933778610240657 -1.8594845697040008 L 3.71085819026315 -1.8594845697040008 L 3.71085819026315 -1.7212320267904855 Z" fill="#404040" transform="matrix(1,0,0,1,0,0)" fill-rule="nonzero"></path></g><g clip-path="url(&quot;#SvgjsClipPath100069df8171-0860-4ad0-9bf6-311dab91cf56&quot;)"><path d=" M 3.728306591569044 -1.7212320267904855 L 3.728306591569044 -1.8594845697040008 L 3.745776249056456 -1.8594845697040008 L 3.745776249056456 -1.7212320267904855 Z" fill="#404040" transform="matrix(1,0,0,1,0,0)" fill-rule="nonzero"></path></g><g clip-path="url(&quot;#SvgjsClipPath100069df8171-0860-4ad0-9bf6-311dab91cf56&quot;)"><path d=" M 3.763195302945204 -1.7212320267904855 L 3.763195302945204 -1.8594845697040008 L 3.780675632184289 -1.8594845697040008 L 3.780675632184289 -1.7212320267904855 Z" fill="#404040" transform="matrix(1,0,0,1,0,0)" fill-rule="nonzero"></path></g><g clip-path="url(&quot;#SvgjsClipPath100069df8171-0860-4ad0-9bf6-311dab91cf56&quot;)"><path d=" M 3.7981080258226543 -1.72658659157843 L 3.7981080258226543 -1.8648498062436176 L 3.815577683310067 -1.8648498062436176 L 3.815577683310067 -1.72658659157843 Z" fill="#404040" transform="matrix(1,0,0,1,0,0)" fill-rule="nonzero"></path></g><g clip-path="url(&quot;#SvgjsClipPath100069df8171-0860-4ad0-9bf6-311dab91cf56&quot;)"><path d=" M 3.8330127448663425 -1.72658659157843 L 3.8330127448663425 -1.8648498062436176 L 3.8504824023537547 -1.8648498062436176 L 3.8504824023537547 -1.72658659157843 Z" fill="#404040" transform="matrix(1,0,0,1,0,0)" fill-rule="nonzero"></path></g><g clip-path="url(&quot;#SvgjsClipPath100069df8171-0860-4ad0-9bf6-311dab91cf56&quot;)"><path d=" M 3.8679334715775564 -1.72658659157843 L 3.8679334715775564 -1.8648498062436176 L 3.8853924573132965 -1.8648498062436176 L 3.8853924573132965 -1.72658659157843 Z" fill="#404040" transform="matrix(1,0,0,1,0,0)" fill-rule="nonzero"></path></g><g clip-path="url(&quot;#SvgjsClipPath100069df8171-0860-4ad0-9bf6-311dab91cf56&quot;)"><path d=" M 3.9028141791199533 -1.72658659157843 L 3.9028141791199533 -1.8648498062436176 L 3.9202945083590373 -1.8648498062436176 L 3.9202945083590373 -1.72658659157843 Z" fill="#404040" transform="matrix(1,0,0,1,0,0)" fill-rule="nonzero"></path></g><g clip-path="url(&quot;#SvgjsClipPath100069df8171-0860-4ad0-9bf6-311dab91cf56&quot;)"><path d=" M 3.937726901997405 -1.7351667013731633 L 3.937726901997405 -1.873429916038351 L 3.955196559484817 -1.873429916038351 L 3.955196559484817 -1.7351667013731633 Z" fill="#404040" transform="matrix(1,0,0,1,0,0)" fill-rule="nonzero"></path></g><g clip-path="url(&quot;#SvgjsClipPath100069df8171-0860-4ad0-9bf6-311dab91cf56&quot;)"><path d=" M 3.9726156133735637 -1.7351667013731633 L 3.9726156133735637 -1.873429916038351 L 3.990095942612648 -1.873429916038351 L 3.990095942612648 -1.7351667013731633 Z" fill="#404040" transform="matrix(1,0,0,1,0,0)" fill-rule="nonzero"></path></g><g clip-path="url(&quot;#SvgjsClipPath100069df8171-0860-4ad0-9bf6-311dab91cf56&quot;)"><path d=" M 4.00753634008478 -1.748180935073011 L 4.00753634008478 -1.8864441497381987 L 4.025016669323863 -1.8864441497381987 L 4.025016669323863 -1.748180935073011 Z" fill="#404040" transform="matrix(1,0,0,1,0,0)" fill-rule="nonzero"></path></g><g clip-path="url(&quot;#SvgjsClipPath100069df8171-0860-4ad0-9bf6-311dab91cf56&quot;)"><path d=" M 4.042433055294702 -1.748180935073011 L 4.042433055294702 -1.8864441497381987 L 4.059902712782115 -1.8864441497381987 L 4.059902712782115 -1.748180935073011 Z" fill="#404040" transform="matrix(1,0,0,1,0,0)" fill-rule="nonzero"></path></g><g clip-path="url(&quot;#SvgjsClipPath100069df8171-0860-4ad0-9bf6-311dab91cf56&quot;)"><path d=" M 4.077345778172154 -1.7631961272137948 L 4.077345778172154 -1.9014593418789825 L 4.094815435659566 -1.9014593418789825 L 4.094815435659566 -1.7631961272137948 Z" fill="#404040" transform="matrix(1,0,0,1,0,0)" fill-rule="nonzero"></path></g><g clip-path="url(&quot;#SvgjsClipPath100069df8171-0860-4ad0-9bf6-311dab91cf56&quot;)"><path d=" M 4.112234489548313 -1.7760662919058952 L 4.112234489548313 -1.9143188348194107 L 4.129704147035726 -1.9143188348194107 L 4.129704147035726 -1.7760662919058952 Z" fill="#404040" transform="matrix(1,0,0,1,0,0)" fill-rule="nonzero"></path></g><g clip-path="url(&quot;#SvgjsClipPath100069df8171-0860-4ad0-9bf6-311dab91cf56&quot;)"><path d=" M 4.147134604386628 -1.9358933015131843 L 4.1646042618740395 -1.9358933015131843 L 4.1646042618740395 -1.7976407585996685 L 4.147134604386628 -1.7976407585996685 Z" fill="#404040" transform="matrix(1,0,0,1,0,0)" fill-rule="nonzero"></path></g><g clip-path="url(&quot;#cb59b0fa7-825c-4092-b244-178f91f20e8d69df8171-0860-4ad0-9bf6-311dab91cf56&quot;)"><path d=" M 3.7887878549853973 -2.119703552315376 C 4.007270626970608 -2.119703552315376 4.18437901772265 -2.066376809209329 4.18437901772265 -2.000606803653482 C 4.18437901772265 -1.9348367980976353 4.007270626970608 -1.8815100549915886 3.7887878549853973 -1.8815100549915886 C 3.5703050830001866 -1.8815100549915886 3.3931966922481447 -1.9348367980976353 3.3931966922481447 -2.000606803653482 C 3.3931966922481447 -2.066376809209329 3.5703050830001866 -2.119703552315376 3.7887878549853973 -2.119703552315376" fill="#bab9b4" transform="matrix(1,0,0,1,0,0)" fill-rule="nonzero"></path></g><g clip-path="url(&quot;#cb59b0fa7-825c-4092-b244-178f91f20e8d69df8171-0860-4ad0-9bf6-311dab91cf56&quot;)"><path d=" M 3.455316958732095 -2.016710476926851 C 3.455316958732095 -2.0216728414544303 3.456992423744632 -2.0265391602169593 3.4602259645013125 -2.031256074456077 C 3.4873215419970607 -1.9916318604971515 3.6231195820259674 -1.9615268490298392 3.786568130637577 -1.9615268490298392 C 3.950016679249187 -1.9615268490298392 4.085814719278094 -1.9916318604971515 4.11289962502217 -2.031256074456077 C 4.11613316577885 -2.0265284884652868 4.11781930254306 -2.0216728414544303 4.11781930254306 -2.016710476926851 C 4.11781930254306 -1.9701602961326594 3.9695139695543196 -1.9324249822197153 3.7865574588859046 -1.9324249822197153 C 3.6036222917208347 -1.9324249822197153 3.455316958732095 -1.9701602961326594 3.455316958732095 -2.016710476926851" fill="#404040" transform="matrix(1,0,0,1,0,0)" fill-rule="nonzero"></path></g><g clip-path="url(&quot;#cb59b0fa7-825c-4092-b244-178f91f20e8d69df8171-0860-4ad0-9bf6-311dab91cf56&quot;)"><path d=" M 3.786077230060655 -2.1297883576456167 C 3.8624015980203206 -2.1297883576456167 3.92427641421581 -2.1101736780720897 3.92427641421581 -2.0859808170311838 C 3.92427641421581 -2.0617772842386053 3.8624015980203206 -2.0421626046650783 3.786077230060655 -2.0421626046650783 C 3.70975286210099 -2.0421626046650783 3.6478780459055007 -2.0617772842386053 3.6478780459055007 -2.0859808170311838 C 3.6478780459055007 -2.1101736780720897 3.70975286210099 -2.1297883576456167 3.786077230060655 -2.1297883576456167" fill="#404040" transform="matrix(1,0,0,1,0,0)" fill-rule="nonzero"></path></g><g clip-path="url(&quot;#cb59b0fa7-825c-4092-b244-178f91f20e8d69df8171-0860-4ad0-9bf6-311dab91cf56&quot;)"><path d=" M 3.709688831590957 -1.596200774034982 C 3.6590193546512912 -1.5841310228937093 3.622351215905568 -1.5427886569155573 3.599663071850444 -1.4721523325971813 C 3.607218672034371 -1.5569073843778947 3.6358723252742617 -1.6012591843276107 3.6856347033217896 -1.6052184041980015 Z" fill="#404040" transform="matrix(1,0,0,1,0,0)" fill-rule="nonzero"></path></g><g clip-path="url(&quot;#cb59b0fa7-825c-4092-b244-178f91f20e8d69df8171-0860-4ad0-9bf6-311dab91cf56&quot;)"><path d=" M 3.6946630052364813 -1.5781655137089423 L 3.656981050081898 -1.5565232013176948 C 3.7413946058091008 -1.5268450599172714 3.7946466466534416 -1.4960570563429378 3.816705157359906 -1.4641378470913495 C 3.815296486139174 -1.4981380479190194 3.774615768764699 -1.5361508273754407 3.6946630052364813 -1.5781655137089423" fill="#404040" transform="matrix(1,0,0,1,0,0)" fill-rule="nonzero"></path></g><g clip-path="url(&quot;#cb59b0fa7-825c-4092-b244-178f91f20e8d69df8171-0860-4ad0-9bf6-311dab91cf56&quot;)"><path d=" M 3.7020905444003414 -1.2827714274220945 L 3.7052600546469887 -1.2739138735341582 C 3.7906020527696733 -1.304509785578392 3.8618466669333658 -1.3481785934210864 3.91704096658205 -1.4036823738682647 L 3.9103604500352445 -1.410330875160053 C 3.856169295043749 -1.3558195676183904 3.786098573564 -1.3129084541444236 3.7020905444003414 -1.2827714274220945" fill="#404040" transform="matrix(1,0,0,1,0,0)" fill-rule="nonzero"></path></g><g clip-path="url(&quot;#cb59b0fa7-825c-4092-b244-178f91f20e8d69df8171-0860-4ad0-9bf6-311dab91cf56&quot;)"><path d=" M 3.702015842138636 -1.235783704809342 L 3.7053454286603666 -1.2269688379280943 C 3.7965035314444076 -1.2613852370709804 3.8677588173597717 -1.305075388417019 3.9171049970920833 -1.3567906970205619 L 3.9102964195252117 -1.3632897937889394 C 3.8619213691950716 -1.3125989733459291 3.7918506477153224 -1.269698531623634 3.702015842138636 -1.235783704809342" fill="#404040" transform="matrix(1,0,0,1,0,0)" fill-rule="nonzero"></path></g><g clip-path="url(&quot;#cb59b0fa7-825c-4092-b244-178f91f20e8d69df8171-0860-4ad0-9bf6-311dab91cf56&quot;)"><path d=" M 3.7019518116286028 -1.1887853104449175 L 3.7053987874187277 -1.1800238023220304 C 3.802394338367469 -1.2182500168118966 3.873638952531161 -1.2619508399096073 3.9171796993537886 -1.3098990201728595 L 3.9102110455118337 -1.3162380406661538 C 3.8676627715947216 -1.2693570355701231 3.7975920501149734 -1.2264672655995006 3.7019518116286028 -1.1887853104449175" fill="#404040" transform="matrix(1,0,0,1,0,0)" fill-rule="nonzero"></path></g><g clip-path="url(&quot;#cb59b0fa7-825c-4092-b244-178f91f20e8d69df8171-0860-4ad0-9bf6-311dab91cf56&quot;)"><path d=" M 3.7018984528702417 -1.1418082595838368 L 3.705452146177089 -1.1331001102193112 C 3.8082958170422025 -1.175125468304485 3.8795724464609114 -1.218858306657213 3.917286416870511 -1.2630500303318457 L 3.910114999746784 -1.2691649440400234 C 3.873382830491028 -1.2261150977943176 3.803333452514624 -1.183257343078711 3.7018984528702417 -1.1418082595838368" fill="#404040" transform="matrix(1,0,0,1,0,0)" fill-rule="nonzero"></path></g><g clip-path="url(&quot;#cb59b0fa7-825c-4092-b244-178f91f20e8d69df8171-0860-4ad0-9bf6-311dab91cf56&quot;)"><path d=" M 3.7018450941118806 -1.0948312087227565 L 3.7055055049354495 -1.0861550746132478 C 3.814207967468608 -1.1320009197970737 3.885505940390661 -1.1757657734048177 3.917403806138905 -1.2162437274975204 L 3.9100082822300615 -1.2220705039105488 C 3.879092217635661 -1.182862488266839 3.8090641831626013 -1.140058092309594 3.7018450941118806 -1.0948312087227565" fill="#404040" transform="matrix(1,0,0,1,0,0)" fill-rule="nonzero"></path></g><g clip-path="url(&quot;#cb59b0fa7-825c-4092-b244-178f91f20e8d69df8171-0860-4ad0-9bf6-311dab91cf56&quot;)"><path d=" M 3.7018024071051916 -1.0478648296133484 L 3.7055481919421385 -1.039220710758856 C 3.821731552397518 -1.089580706900028 3.891076594763556 -1.132193011327173 3.9175425389106433 -1.169469439918212 L 3.9098588777066507 -1.1749227050227127 C 3.884780261276951 -1.139577863484344 3.8147735703072354 -1.0968374980371323 3.7018024071051916 -1.0478648296133484" fill="#404040" transform="matrix(1,0,0,1,0,0)" fill-rule="nonzero"></path></g><g clip-path="url(&quot;#cb59b0fa7-825c-4092-b244-178f91f20e8d69df8171-0860-4ad0-9bf6-311dab91cf56&quot;)"><path d=" M 3.6789541867749844 -1.4183560324175568 C 3.758832248041496 -1.3831392518992551 3.840716598622384 -1.366469975787259 3.9223341554114675 -1.3688177611551455 L 3.922067361619662 -1.378230246130037 C 3.8418584760513115 -1.375925147768839 3.7613401096844665 -1.3923276300890302 3.682753330370292 -1.426978807768705 Z" fill="#404040" transform="matrix(1,0,0,1,0,0)" fill-rule="nonzero"></path></g><g clip-path="url(&quot;#cb59b0fa7-825c-4092-b244-178f91f20e8d69df8171-0860-4ad0-9bf6-311dab91cf56&quot;)"><path d=" M 3.6789541867749844 -1.3786571161969259 C 3.758821576289824 -1.3434296639269516 3.8407059268707124 -1.3267710595666276 3.9223341554114675 -1.3291188449345142 L 3.922067361619662 -1.3385313299094057 C 3.8418584760513115 -1.336226231548208 3.7613294379327944 -1.3526287138683988 3.682753330370292 -1.3872798915480735 Z" fill="#404040" transform="matrix(1,0,0,1,0,0)" fill-rule="nonzero"></path></g><g clip-path="url(&quot;#cb59b0fa7-825c-4092-b244-178f91f20e8d69df8171-0860-4ad0-9bf6-311dab91cf56&quot;)"><path d=" M 3.6789541867749844 -1.3389581999762945 C 3.758832248041496 -1.303752091209665 3.840716598622384 -1.2870828150976688 3.9223341554114675 -1.2894306004655554 L 3.922067361619662 -1.2988430854404474 C 3.8418584760513115 -1.2965273153275767 3.7613401096844665 -1.3129297976477678 3.682753330370292 -1.3475809753274426 Z" fill="#404040" transform="matrix(1,0,0,1,0,0)" fill-rule="nonzero"></path></g><g clip-path="url(&quot;#cb59b0fa7-825c-4092-b244-178f91f20e8d69df8171-0860-4ad0-9bf6-311dab91cf56&quot;)"><path d=" M 3.6789541867749844 -1.2992699555073353 C 3.758821576289824 -1.2640531749890331 3.8407059268707124 -1.247394570628709 3.9223341554114675 -1.249731684244924 L 3.922067361619662 -1.2591548409714877 C 3.8418584760513115 -1.2568497426102896 3.7613294379327944 -1.2732415531788086 3.682753330370292 -1.307892730858483 Z" fill="#404040" transform="matrix(1,0,0,1,0,0)" fill-rule="nonzero"></path></g><g clip-path="url(&quot;#cb59b0fa7-825c-4092-b244-178f91f20e8d69df8171-0860-4ad0-9bf6-311dab91cf56&quot;)"><path d=" M 3.6789541867749844 -1.2595817110383765 C 3.758821576289824 -1.2243649305200743 3.8407059268707124 -1.2077063261597503 3.9223341554114675 -1.2100434397759652 L 3.922067361619662 -1.2194559247508563 C 3.8418584760513115 -1.2171508263896587 3.7613294379327944 -1.2335533087098498 3.682753330370292 -1.268204486389524 Z" fill="#404040" transform="matrix(1,0,0,1,0,0)" fill-rule="nonzero"></path></g><g clip-path="url(&quot;#cb59b0fa7-825c-4092-b244-178f91f20e8d69df8171-0860-4ad0-9bf6-311dab91cf56&quot;)"><path d=" M 3.6789541867749844 -1.219882794817745 C 3.758832248041496 -1.1846553425477708 3.840716598622384 -1.1679967381874468 3.9223341554114675 -1.1703445235553338 L 3.922067361619662 -1.1797570085302254 C 3.8418584760513115 -1.1774519101690273 3.7613401096844665 -1.1938543924892184 3.682753330370292 -1.2284948984172206 Z" fill="#404040" transform="matrix(1,0,0,1,0,0)" fill-rule="nonzero"></path></g><g clip-path="url(&quot;#cb59b0fa7-825c-4092-b244-178f91f20e8d69df8171-0860-4ad0-9bf6-311dab91cf56&quot;)"><path d=" M 3.6789541867749844 -1.1801945503487863 C 3.758821576289824 -1.1449777698304842 3.8407059268707124 -1.128308493718488 3.9223341554114675 -1.130656279086375 L 3.922067361619662 -1.1400687640612666 C 3.8418584760513115 -1.137763665700069 3.7613294379327944 -1.1541661480202596 3.682753330370292 -1.188817325699934 Z" fill="#404040" transform="matrix(1,0,0,1,0,0)" fill-rule="nonzero"></path></g><g clip-path="url(&quot;#cb59b0fa7-825c-4092-b244-178f91f20e8d69df8171-0860-4ad0-9bf6-311dab91cf56&quot;)"><path d=" M 3.6789541867749844 -1.1603450922384702 C 3.758821576289824 -1.1251389834718406 3.8407059268707124 -1.1084697073598444 3.9223341554114675 -1.1108174927277314 L 3.922067361619662 -1.120229977702623 C 3.8418584760513115 -1.117924879341425 3.7613294379327944 -1.1343166899099435 3.682753330370292 -1.1689678675896182 Z" fill="#404040" transform="matrix(1,0,0,1,0,0)" fill-rule="nonzero"></path></g><g clip-path="url(&quot;#cb59b0fa7-825c-4092-b244-178f91f20e8d69df8171-0860-4ad0-9bf6-311dab91cf56&quot;)"><path d=" M 3.702122559655358 -1.332469774959589 L 3.7052173676402997 -1.3235695340649638 C 3.787656649308143 -1.352287217814888 3.858911935223507 -1.3959453539059101 3.917008951327033 -1.4533273626473977 L 3.9103817935385887 -1.4600292226975475 C 3.8532879220922513 -1.4036396868615757 3.783217200612502 -1.360728573387608 3.702122559655358 -1.332469774959589" fill="#404040" transform="matrix(1,0,0,1,0,0)" fill-rule="nonzero"></path></g><g clip-path="url(&quot;#cb59b0fa7-825c-4092-b244-178f91f20e8d69df8171-0860-4ad0-9bf6-311dab91cf56&quot;)"><path d=" M 3.302977703611259 -2.02992210549705 C 3.356880721307605 -1.7783675750796526 3.3588549953669644 -1.7021392528850372 3.4136544402037767 -1.6068618539555222 L 3.576633431741809 -1.421429496899154 L 3.675368478213121 -1.2616947178694744 L 3.684791634939685 -1.153472484161565 C 3.6831695286855086 -1.1177648030663416 3.636992859199844 -1.1167936736641702 3.6321051969339706 -1.149854760344685 L 3.6229488339992124 -1.2337880872466376 L 3.552632662231003 -1.3186071695373847 C 3.5429533834643054 -1.3294603409880246 3.5394317054124755 -1.3265256092781663 3.5423664371223342 -1.315096163237227 L 3.5703691135102202 -1.2003321457542508 L 3.5486627706089395 -1.0769240094167833 C 3.5402747737945806 -1.0368195666326083 3.4889436482512375 -1.0463814561309106 3.4950158749527263 -1.090946691114071 L 3.505676954873267 -1.1870351431706743 L 3.47130324273707 -1.2972316509379427 C 3.462435017097461 -1.3126950191109787 3.452894471102503 -1.3099630506828923 3.455082180195306 -1.2941795299596897 L 3.4905977697604302 -1.1870351431706743 L 3.46209352104395 -1.0536382472680152 C 3.4516778914118706 -1.0159669638651043 3.389707029451331 -1.0149851627112612 3.401979543874376 -1.060553542351609 L 3.4197053234019212 -1.1779854977526378 L 3.37860840771223 -1.2854927240985083 C 3.3717678148903416 -1.299504734044124 3.363443848586016 -1.291639653061703 3.3637746728878546 -1.2805517030742744 L 3.3767088359145765 -1.1629063126398016 L 3.3467318854673307 -1.025315418329963 C 3.3348755693595025 -0.9809422748769023 3.274409424384745 -0.9897357982548058 3.288944350162299 -1.0401384814026664 L 3.3039381612617578 -1.164795212685783 L 3.2735983712576573 -1.280701107597685 C 3.258647247164887 -1.3086184099721936 3.2365780647067512 -1.3173905898467528 3.2279126023489146 -1.2894626157205717 C 3.210880486680063 -1.1617644352108751 3.1391556436911214 -1.127732219128188 3.1233187642095577 -1.1685623410260737 C 3.145409290171038 -1.2174709789398248 3.145921534251304 -1.2718222102064045 3.154992523172685 -1.3160032621293651 C 3.192130218991985 -1.3858071898173079 3.1991095445856126 -1.4786834446205752 3.204199970133258 -1.5730324011546077 C 3.170338502077327 -1.7053727936417173 3.0863731599203574 -1.7356272096324405 3.024583717738246 -1.9483045487079678 C 3.076491117871888 -2.0644132069016417 3.1761866219936996 -2.07636556877452 3.302977703611259 -2.02992210549705" fill="#bab9b4" transform="matrix(1,0,0,1,0,0)" fill-rule="nonzero"></path></g><g clip-path="url(&quot;#cb59b0fa7-825c-4092-b244-178f91f20e8d69df8171-0860-4ad0-9bf6-311dab91cf56&quot;)"><path d=" M 2.344355594399736 -3.0271439405069667 C 2.2399858630454954 -2.8821361787849407 2.205505433392576 -2.757031233931591 2.294486498835486 -2.5790584312941 L 2.237968901979447 -2.5201076750567966 C 2.1849409679202223 -2.744449238710052 2.220403198726985 -2.9134577699428847 2.344355594399736 -3.0271439405069667" fill="#bab9b4" transform="matrix(1,0,0,1,0,0)" fill-rule="nonzero"></path></g><g clip-path="url(&quot;#cb59b0fa7-825c-4092-b244-178f91f20e8d69df8171-0860-4ad0-9bf6-311dab91cf56&quot;)"><path d=" M 2.4516280422088177 -2.879510927873576 C 2.453250148462994 -2.905293879913642 2.4614673972505976 -2.9212268051602557 2.4762904603233014 -2.9272883601100723 C 2.485201372969599 -2.9589941343282162 2.4839314345206054 -2.9834751326642723 2.472491316727994 -3.0007420268699123 C 2.4634736865649742 -3.006152604967724 2.4503047450014632 -2.99581167759735 2.433005835540807 -2.96971924475879 C 2.4499632489479524 -2.979547928048898 2.4593330469161554 -2.980497713947725 2.4611045576937425 -2.972568602455271 L 2.4611045576937425 -2.943456063893475 L 2.430156477844326 -2.9510650228357624 L 2.4535276140064717 -2.920992026623467 L 2.429217363697171 -2.9181426689269863 Z" fill="#404040" transform="matrix(1,0,0,1,0,0)" fill-rule="nonzero"></path></g><g clip-path="url(&quot;#cb59b0fa7-825c-4092-b244-178f91f20e8d69df8171-0860-4ad0-9bf6-311dab91cf56&quot;)"><path d=" M 2.318081741782748 -2.6778254930204284 C 2.354909956803554 -2.7126047317201696 2.386562372263337 -2.7348660057084055 2.413049659913769 -2.744619986736808 L 2.4101896304656156 -2.7794419124432377" fill="#404040" transform="matrix(1,0,0,1,0,0)" fill-rule="nonzero"></path></g><g clip-path="url(&quot;#cb59b0fa7-825c-4092-b244-178f91f20e8d69df8171-0860-4ad0-9bf6-311dab91cf56&quot;)"><path d=" M 2.7507252263259234 -2.5820251782589745 C 2.7079955326303837 -2.615203654207884 2.7164689034581206 -2.6396312937855786 2.752966294177088 -2.6293330534218935 C 2.7274714794321717 -2.6242639713775926 2.726724456815117 -2.608491122406062 2.7507252263259234 -2.5820251782589745" fill="#404040" transform="matrix(1,0,0,1,0,0)" fill-rule="nonzero"></path></g><g clip-path="url(&quot;#cb59b0fa7-825c-4092-b244-178f91f20e8d69df8171-0860-4ad0-9bf6-311dab91cf56&quot;)"><path d=" M 2.686278517977431 -2.626611756745479 L 2.6370497275135136 -2.6197391486685744 C 2.625630953224246 -2.6196431029035243 2.6249052741105356 -2.619269591594997 2.6243610147752525 -2.618682645253025 L 2.6008618175930405 -2.5935399983132923 C 2.5981725361716426 -2.5906586253617947 2.601694214223473 -2.5862725354245155 2.6050878312552364 -2.5882788247388913 L 2.6415638784708593 -2.609846434868433 C 2.6418220335504 -2.6100050582298655 2.6421026632670586 -2.6101237861869135 2.642396275101292 -2.6101986026736164 Z" fill="#404040" transform="matrix(1,0,0,1,0,0)" fill-rule="nonzero"></path></g><g clip-path="url(&quot;#cb59b0fa7-825c-4092-b244-178f91f20e8d69df8171-0860-4ad0-9bf6-311dab91cf56&quot;)"><path d=" M 1.9906724004792622 -1.6442876870699719 C 1.9312734306717263 -1.6490793035707956 1.8873485007888988 -1.6596976964846473 1.858961641340813 -1.676153537563199 L 1.8414172815916952 -1.6413956423668021 C 1.8611173351786001 -1.624566289979723 1.8943278263825258 -1.6145988739178763 1.9409953964451119 -1.61148272242959 C 1.9575579550403863 -1.6224105961419362 1.9741311853873325 -1.6333277981026098 1.9906724004792622 -1.6442876870699719" fill="#404040" transform="matrix(1,0,0,1,0,0)" fill-rule="nonzero"></path></g><g clip-path="url(&quot;#cb59b0fa7-825c-4092-b244-178f91f20e8d69df8171-0860-4ad0-9bf6-311dab91cf56&quot;)"><path d=" M 1.9900107518755852 -1.8959169197490755 C 1.806371249100149 -1.7780580942811584 1.7300788963955003 -1.6697291430565273 1.761176380768328 -1.570930066075182 C 1.7819756247774707 -1.6880418689260441 1.8582466339787749 -1.7963814919023475 1.9900107518755852 -1.8959169197490755" fill="#404040" transform="matrix(1,0,0,1,0,0)" fill-rule="nonzero"></path></g><g clip-path="url(&quot;#cb59b0fa7-825c-4092-b244-178f91f20e8d69df8171-0860-4ad0-9bf6-311dab91cf56&quot;)"><path d=" M 2.6887223491103676 -1.1823182289315564 C 2.880845894465213 -1.1831506255619888 3.0002627956772727 -1.1141897662561506 3.046973052746548 -0.9754356510140405 C 2.9714170509072817 -1.0640005181417345 2.852000149695222 -1.1329720491992448 2.6887223491103676 -1.1823182289315564" fill="#bab9b4" transform="matrix(1,0,0,1,0,0)" fill-rule="nonzero"></path></g><g clip-path="url(&quot;#SvgjsClipPath100069df8171-0860-4ad0-9bf6-311dab91cf56&quot;)"><path d=" M 3.2441146680313544 -1.0889771824572962 L 3.1504060165976546 -1.0616895134314488 L 3.134056893035825 -0.9367766601081988 L 3.238170502349932 -0.9878303201080647 Z" fill="#bab9b4" transform="matrix(1,0,0,1,0,0)" fill-rule="nonzero"></path></g><g clip-path="url(&quot;#SvgjsClipPath100069df8171-0860-4ad0-9bf6-311dab91cf56&quot;)"><path d=" M 2.97444149702953 -1.2714005616005486 L 3.045333943388039 -1.2287348984150421 L 3.0690999343620566 -1.0542731020777087 L 3.083015898542622 -1.2411461456098256 L 3.0106294069500033 -1.281805519480956 Z" fill="#bab9b4" transform="matrix(1,0,0,1,0,0)" fill-rule="nonzero"></path></g><g clip-path="url(&quot;#SvgjsClipPath100069df8171-0860-4ad0-9bf6-311dab91cf56&quot;)"><path d=" M 2.6819493959672718 -1.4161739067191488 L 2.421195815608426 -1.3423040416440926 L 2.470755430374182 -1.299638378458586 L 2.763236128454516 -1.385930162480098 Z" fill="#bab9b4" transform="matrix(1,0,0,1,0,0)" fill-rule="nonzero"></path></g><g clip-path="url(&quot;#SvgjsClipPath100069df8171-0860-4ad0-9bf6-311dab91cf56&quot;)"><path d=" M 4.069814170600471 -1.239481272550738 L 4.069814170600471 -1.455381480631273 L 3.9893811782470032 -1.4507179251505162 L 3.9893811782470032 -1.1493156426722129 Z" fill="#bab9b4" transform="matrix(1,0,0,1,0,0)" fill-rule="nonzero"></path></g><g clip-path="url(&quot;#db59b0fa7-825c-4092-b244-178f91f20e8d69df8171-0860-4ad0-9bf6-311dab91cf56&quot;)"><path d=" M 4.107489046924358 -1.6463046481360206 C 4.0461478183124795 -1.5473241513762477 3.9422903310385053 -1.531529958901373 3.795927256854108 -1.5988900554563794 C 3.925108810846243 -1.5779200634204815 4.028966298120217 -1.5937249276470284 4.107489046924358 -1.6463046481360206" fill="#bab9b4" transform="matrix(1,0,0,1,0,0)" fill-rule="nonzero"></path></g><g clip-path="url(&quot;#db59b0fa7-825c-4092-b244-178f91f20e8d69df8171-0860-4ad0-9bf6-311dab91cf56&quot;)"><path d=" M 3.275860782612166 -2.11157167754115 C 3.200411498289622 -2.213092051198909 3.106158587520639 -2.2089300680467465 2.9931447373119067 -2.0991177433396775 C 3.11542166797212 -2.157140057181498 3.2096745787411027 -2.161291368581989 3.275860782612166 -2.11157167754115" fill="#bab9b4" transform="matrix(1,0,0,1,0,0)" fill-rule="nonzero"></path></g><g clip-path="url(&quot;#db59b0fa7-825c-4092-b244-178f91f20e8d69df8171-0860-4ad0-9bf6-311dab91cf56&quot;)"><path d=" M 3.263086695860528 -2.1910762274991344 C 3.237751957390695 -2.305904275492143 3.161715726726179 -2.333789562611635 3.0349566603636364 -2.27473208885761 C 3.160701910317319 -2.2838991235440407 3.2367488127335067 -2.2560138364245486 3.263086695860528 -2.1910762274991344" fill="#bab9b4" transform="matrix(1,0,0,1,0,0)" fill-rule="nonzero"></path></g><g clip-path="url(&quot;#SvgjsClipPath100069df8171-0860-4ad0-9bf6-311dab91cf56&quot;)"><path d=" M 4.2120903195847825 -1.1430510833651506 L 3.233757485034683 -0.7665730278728309 L 3.1204448257791286 -0.7836798458033876 L 4.2120903195847825 -1.1999101762746998 Z" fill="#bab9b4" transform="matrix(1,0,0,1,0,0)" fill-rule="nonzero"></path></g><g clip-path="url(&quot;#eb59b0fa7-825c-4092-b244-178f91f20e8d69df8171-0860-4ad0-9bf6-311dab91cf56&quot;)"><path d=" M 2.8231223896702144 -2.0487150601918174 L 2.8265053349503058 -1.9828383371192482 L 2.8265053349503058 -1.980768017294839 L 2.841008245472843 -1.9842149930849637 L 2.83544826285162 -2.056409393147483 C 2.8314143407195234 -2.0537521269811014 2.827316388077394 -2.0511802348280983 2.8231223896702144 -2.0487150601918174" fill="#404040" transform="matrix(1,0,0,1,0,0)" fill-rule="nonzero"></path></g><g clip-path="url(&quot;#eb59b0fa7-825c-4092-b244-178f91f20e8d69df8171-0860-4ad0-9bf6-311dab91cf56&quot;)"><path d=" M 2.8285863265263873 -2.1587194764289857 C 2.816196422834948 -2.0936217912284882 2.7876494871117794 -2.0847962525955683 2.742945519356881 -2.132253532281898 C 2.778845291982204 -2.1115076470311167 2.807392227705373 -2.1203331856640366 2.8285863265263873 -2.1587194764289857" fill="#404040" transform="matrix(1,0,0,1,0,0)" fill-rule="nonzero"></path></g><g clip-path="url(&quot;#eb59b0fa7-825c-4092-b244-178f91f20e8d69df8171-0860-4ad0-9bf6-311dab91cf56&quot;)"><path d=" M 2.8513171575882 -1.5785176815141253 L 2.874987102797168 -1.3292255624512364 C 2.8671860523247803 -1.3155763920624763 2.8568557967060784 -1.3116385156954302 2.843974992437718 -1.3173905898467524 C 2.8519361191851886 -1.3205601000933997 2.8563542243774847 -1.3293322799679586 2.8572399797662786 -1.3436751142154124 L 2.8333245842688495 -1.5773331170785094 Z" fill="#404040" transform="matrix(1,0,0,1,0,0)" fill-rule="nonzero"></path></g><g clip-path="url(&quot;#eb59b0fa7-825c-4092-b244-178f91f20e8d69df8171-0860-4ad0-9bf6-311dab91cf56&quot;)"><path d=" M 2.5040049994160376 -2.4329194638948186 C 2.447786211606821 -2.424350047302032 2.4428345188309146 -2.415460478159079 2.3770111545167065 -2.4547005090578047 L 2.3982799555994267 -2.192399524706489 Z" fill="#bab9b4" transform="matrix(1,0,0,1,0,0)" fill-rule="nonzero"></path></g><g clip-path="url(&quot;#eb59b0fa7-825c-4092-b244-178f91f20e8d69df8171-0860-4ad0-9bf6-311dab91cf56&quot;)"><path d=" M 3.0119270202550013 -2.7638504832501347 C 3.0715394250959815 -2.72669144392749 3.1266376789796158 -2.6412000412813943 3.1772004384025596 -2.5073869470635195 C 3.1347695537538423 -2.6611348734050875 3.080375635480574 -2.7598699198763996 3.0140400270860996 -2.803581414725783 Z" fill="#bab9b4" transform="matrix(1,0,0,1,0,0)" fill-rule="nonzero"></path></g><g clip-path="url(&quot;#eb59b0fa7-825c-4092-b244-178f91f20e8d69df8171-0860-4ad0-9bf6-311dab91cf56&quot;)"><path d=" M 3.8693809236139476 -1.4304577988138463 C 3.810451510879989 -1.4162323538347867 3.7436890324186263 -1.4001073370580732 3.682764002121964 -1.4269681360170328 L 3.678964858526656 -1.4183453606658847 C 3.7428032770298327 -1.39020395150626 3.8112198770003882 -1.406713151343173 3.8716006479617677 -1.4213014358790876 L 3.9172010428571324 -1.4314182564643456 L 3.9155469213479397 -1.4406920086674981 Z" fill="#404040" transform="matrix(1,0,0,1,0,0)" fill-rule="nonzero"></path></g><g clip-path="url(&quot;#eb59b0fa7-825c-4092-b244-178f91f20e8d69df8171-0860-4ad0-9bf6-311dab91cf56&quot;)"><path d=" M 3.664728741795925 -1.3589997496167099 L 3.666724359358629 -1.3498006996752627 C 3.7058576727406325 -1.3582527269996554 3.741586697339201 -1.3752848426685067 3.7826195825188584 -1.4049843275722744 L 3.7771022869043245 -1.4126039582662346 C 3.7371685921469044 -1.3837155264895546 3.70251741446723 -1.367174311397625 3.664728741795925 -1.3589997496167099" fill="#404040" transform="matrix(1,0,0,1,0,0)" fill-rule="nonzero"></path></g><g clip-path="url(&quot;#eb59b0fa7-825c-4092-b244-178f91f20e8d69df8171-0860-4ad0-9bf6-311dab91cf56&quot;)"><path d=" M 3.8313574724058546 -1.4488879139517574 C 3.794539929136721 -1.427693815130743 3.730285312318328 -1.4157521250095368 3.6762649053535874 -1.4395714747419155 L 3.6724764335099516 -1.4309486993907679 C 3.729484930942912 -1.4058060524510347 3.7972398823097904 -1.4183987194242458 3.836053043141628 -1.440724023922515 C 3.860672774249423 -1.4548854383915408 3.875431806812093 -1.4733902557911578 3.877598172401552 -1.4928448590896015 L 3.8682390461850216 -1.4938906907534784 C 3.8664248484007455 -1.4774882084332872 3.853309265595596 -1.4615125961799853 3.8313574724058546 -1.4488879139517574" fill="#404040" transform="matrix(1,0,0,1,0,0)" fill-rule="nonzero"></path></g><g clip-path="url(&quot;#eb59b0fa7-825c-4092-b244-178f91f20e8d69df8171-0860-4ad0-9bf6-311dab91cf56&quot;)"><path d=" M 2.9492198074290794 -0.6210481214832018 C 2.755186018524908 -0.8600633436857499 2.1319663926193586 -1.3100911117029592 1.413469367784294 -1.4105656536968416 L 1.413469367784294 -1.5454139078269216 C 2.2062097690029425 -1.4188149177394624 2.83043253956568 -1.11727390248942 3.1184951324537176 -0.7070517682095634 Z" fill="#bab9b4" transform="matrix(1,0,0,1,0,0)" fill-rule="nonzero"></path></g></g></g><defs><clipPath id="SvgjsClipPath1001"><path d=" M 1.2382818923332501 -3.723655169305235 h 3.188698056153811 v 3.473655169305235 h -3.188698056153811 Z"></path></clipPath><clipPath id="SvgjsClipPath100069df8171-0860-4ad0-9bf6-311dab91cf56"><path d=" M 1.23828189233325 -3.723655169305235 L 4.426979948487061 -3.723655169305235 L 4.426979948487061 -0.25 L 1.2382818923332495 -0.25 Z"></path></clipPath><clipPath id="ab59b0fa7-825c-4092-b244-178f91f20e8d69df8171-0860-4ad0-9bf6-311dab91cf56"><path d=" M 1.23828189233325 -0.2499913158403655 L 4.426979948487062 -0.2499913158403655 L 4.426979948487062 -3.7236464851456015 L 1.23828189233325 -3.7236464851456015 Z"></path></clipPath><clipPath id="bb59b0fa7-825c-4092-b244-178f91f20e8d69df8171-0860-4ad0-9bf6-311dab91cf56"><path d=" M 1.23828189233325 -0.2499913158403655 L 4.426979948487062 -0.2499913158403655 L 4.426979948487062 -3.7236464851456015 L 1.23828189233325 -3.7236464851456015 Z"></path></clipPath><clipPath id="cb59b0fa7-825c-4092-b244-178f91f20e8d69df8171-0860-4ad0-9bf6-311dab91cf56"><path d=" M 1.23828189233325 -0.2499913158403655 L 4.426979948487062 -0.2499913158403655 L 4.426979948487062 -3.7236464851456015 L 1.23828189233325 -3.7236464851456015 Z"></path></clipPath><clipPath id="db59b0fa7-825c-4092-b244-178f91f20e8d69df8171-0860-4ad0-9bf6-311dab91cf56"><path d=" M 1.23828189233325 -0.2499913158403655 L 4.426979948487062 -0.2499913158403655 L 4.426979948487062 -3.7236464851456015 L 1.23828189233325 -3.7236464851456015 Z"></path></clipPath><clipPath id="eb59b0fa7-825c-4092-b244-178f91f20e8d69df8171-0860-4ad0-9bf6-311dab91cf56"><path d=" M 1.23828189233325 -0.2499913158403655 L 4.426979948487062 -0.2499913158403655 L 4.426979948487062 -3.7236464851456015 L 1.23828189233325 -3.7236464851456015 Z"></path></clipPath></defs></svg>